<svg width="86" height="86" viewBox="0 0 86 86" fill="none" xmlns="http://www.w3.org/2000/svg">
<path d="M64.5 39.4167V46.5834C64.5 50.5358 61.2857 53.75 57.3333 53.75H53.75V32.25H57.3333C61.2857 32.25 64.5 35.4643 64.5 39.4167ZM86 25.0834V60.9167C86 70.7959 77.9626 78.8334 68.0833 78.8334H17.9167C8.03742 78.8334 0 70.7959 0 60.9167V25.0834C0 15.2041 8.03742 7.16669 17.9167 7.16669H68.0833C77.9626 7.16669 86 15.2041 86 25.0834ZM39.4167 28.6667C39.4167 27.7163 39.0391 26.8049 38.3671 26.1329C37.6951 25.4609 36.7837 25.0834 35.8333 25.0834C34.883 25.0834 33.9715 25.4609 33.2995 26.1329C32.6275 26.8049 32.25 27.7163 32.25 28.6667V39.4167H21.5V28.6667C21.5 27.7163 21.1225 26.8049 20.4505 26.1329C19.7785 25.4609 18.867 25.0834 17.9167 25.0834C16.9663 25.0834 16.0549 25.4609 15.3829 26.1329C14.7109 26.8049 14.3333 27.7163 14.3333 28.6667V57.3334C14.3333 58.2837 14.7109 59.1952 15.3829 59.8672C16.0549 60.5392 16.9663 60.9167 17.9167 60.9167C18.867 60.9167 19.7785 60.5392 20.4505 59.8672C21.1225 59.1952 21.5 58.2837 21.5 57.3334V46.5834H32.25V57.3334C32.25 58.2837 32.6275 59.1952 33.2995 59.8672C33.9715 60.5392 34.883 60.9167 35.8333 60.9167C36.7837 60.9167 37.6951 60.5392 38.3671 59.8672C39.0391 59.1952 39.4167 58.2837 39.4167 57.3334V28.6667ZM71.6667 39.4167C71.6667 31.5119 65.2382 25.0834 57.3333 25.0834H53.75C49.7976 25.0834 46.5833 28.2976 46.5833 32.25V53.75C46.5833 57.7024 49.7976 60.9167 53.75 60.9167H57.3333C65.2382 60.9167 71.6667 54.4882 71.6667 46.5834V39.4167Z" fill="#6294F9"/>
</svg>
