<svg width="86" height="86" viewBox="0 0 86 86" fill="none" xmlns="http://www.w3.org/2000/svg">
<g clip-path="url(#clip0_1110_6299)">
<path d="M43.0013 0.455017C33.5009 0.46545 24.3926 4.24409 17.6748 10.9619C10.957 17.6797 7.1784 26.788 7.16797 36.2884C7.16797 55.2155 37.268 81.1983 40.6865 84.1008L43.0013 86.0573L45.3161 84.1008C48.7346 81.1983 78.8346 55.2155 78.8346 36.2884C78.8242 26.788 75.0456 17.6797 68.3278 10.9619C61.61 4.24409 52.5017 0.46545 43.0013 0.455017ZM43.0013 54.205C39.4577 54.205 35.9937 53.1542 33.0473 51.1855C30.101 49.2168 27.8045 46.4186 26.4485 43.1448C25.0924 39.8709 24.7376 36.2685 25.4289 32.793C26.1202 29.3175 27.8266 26.125 30.3323 23.6194C32.838 21.1137 36.0304 19.4073 39.5059 18.716C42.9814 18.0246 46.5839 18.3794 49.8577 19.7355C53.1316 21.0916 55.9298 23.388 57.8985 26.3344C59.8672 29.2808 60.918 32.7448 60.918 36.2884C60.9123 41.0384 59.0228 45.5923 55.664 48.9511C52.3052 52.3099 47.7514 54.1993 43.0013 54.205Z" fill="#6294F9"/>
<path d="M43 47.0383C48.9371 47.0383 53.75 42.2254 53.75 36.2883C53.75 30.3513 48.9371 25.5383 43 25.5383C37.0629 25.5383 32.25 30.3513 32.25 36.2883C32.25 42.2254 37.0629 47.0383 43 47.0383Z" fill="#2C64D6"/>
</g>
<defs>
<clipPath id="clip0_1110_6299">
<rect width="86" height="86" fill="white"/>
</clipPath>
</defs>
</svg>
