<svg width="86" height="86" viewBox="0 0 86 86" fill="none" xmlns="http://www.w3.org/2000/svg">
<g clip-path="url(#clip0_1110_1623)">
<path d="M53.7485 29.5325C56.4002 31.3043 59.5178 32.25 62.707 32.25C66.9822 32.2453 71.0809 30.5449 74.1039 27.5219C77.1269 24.4989 78.8273 20.4002 78.832 16.125C78.832 12.9358 77.8863 9.81818 76.1145 7.16644C74.3427 4.5147 71.8243 2.44791 68.8778 1.22745C65.9313 0.00698676 62.6891 -0.312342 59.5612 0.309845C56.4333 0.932031 53.5601 2.46779 51.3049 4.72291C49.0498 6.97803 47.5141 9.85123 46.8919 12.9792C46.2697 16.1071 46.589 19.3493 47.8095 22.2958C49.0299 25.2422 51.0967 27.7606 53.7485 29.5325Z" fill="#2C64D6"/>
<path d="M26.875 46.5833C23.6858 46.5833 20.5682 45.6376 17.9164 43.8658C15.2647 42.0939 13.1979 39.5755 11.9774 36.6291C10.757 33.6826 10.4377 30.4404 11.0598 27.3125C11.682 24.1845 13.2178 21.3113 15.4729 19.0562C17.728 16.8011 20.6012 15.2653 23.7292 14.6432C26.8571 14.021 30.0993 14.3403 33.0458 15.5608C35.9922 16.7812 38.5106 18.848 40.2824 21.4997C42.0543 24.1515 43 27.2691 43 30.4583C42.9953 34.7335 41.2949 38.8322 38.2719 41.8552C35.2489 44.8782 31.1502 46.5786 26.875 46.5833ZM50.1667 86H3.58333C2.63297 86 1.72154 85.6225 1.04953 84.9505C0.377529 84.2785 0 83.367 0 82.4166V80.625C0 73.4973 2.83147 66.6615 7.87151 61.6215C12.9115 56.5815 19.7473 53.75 26.875 53.75C34.0027 53.75 40.8385 56.5815 45.8785 61.6215C50.9185 66.6615 53.75 73.4973 53.75 80.625V82.4166C53.75 83.367 53.3725 84.2785 52.7005 84.9505C52.0285 85.6225 51.117 86 50.1667 86ZM57.6164 39.4919C54.279 39.9397 51.07 41.0718 48.1905 42.8174C45.3109 44.563 42.8229 46.8845 40.8823 49.6363C48.9121 53.2829 55.2214 59.8926 58.4907 68.0833H82.4167C83.367 68.0833 84.2785 67.7058 84.9505 67.0338C85.6225 66.3618 86 65.4503 86 64.5V64.3638C85.9963 60.792 85.2307 57.262 83.7542 54.0096C82.2777 50.7572 80.1244 47.8572 77.438 45.5031C74.7517 43.1491 71.594 41.3953 68.1759 40.3587C64.7578 39.3221 61.1578 39.0266 57.6164 39.4919Z" fill="#6294F9"/>
</g>
<defs>
<clipPath id="clip0_1110_1623">
<rect width="86" height="86" fill="white"/>
</clipPath>
</defs>
</svg>
