<svg width="86" height="86" viewBox="0 0 86 86" fill="none" xmlns="http://www.w3.org/2000/svg">
<g clip-path="url(#clip0_1110_1662)">
<path d="M68.0833 14.3333H64.1417C63.31 10.2892 61.1095 6.65549 57.9111 4.04457C54.7128 1.43366 50.7121 0.00521205 46.5833 0H39.4167C35.2879 0.00521205 31.2872 1.43366 28.0889 4.04457C24.8905 6.65549 22.69 10.2892 21.8583 14.3333H17.9167C13.1666 14.339 8.61275 16.2285 5.25395 19.5873C1.89516 22.9461 0.00568982 27.5 0 32.25V43H86V32.25C85.9943 27.5 84.1048 22.9461 80.746 19.5873C77.3873 16.2285 72.8334 14.339 68.0833 14.3333ZM29.326 14.3333C30.0645 12.2446 31.4302 10.435 33.2365 9.15215C35.0427 7.8693 37.2012 7.17585 39.4167 7.16667H46.5833C48.7988 7.17585 50.9573 7.8693 52.7635 9.15215C54.5698 10.435 55.9355 12.2446 56.674 14.3333H29.326ZM46.5833 53.75C46.5833 54.7004 46.2058 55.6118 45.5338 56.2838C44.8618 56.9558 43.9504 57.3333 43 57.3333C42.0496 57.3333 41.1382 56.9558 40.4662 56.2838C39.7942 55.6118 39.4167 54.7004 39.4167 53.75V50.1667H0V68.0833C0.00568982 72.8334 1.89516 77.3873 5.25395 80.746C8.61275 84.1048 13.1666 85.9943 17.9167 86H68.0833C72.8334 85.9943 77.3873 84.1048 80.746 80.746C84.1048 77.3873 85.9943 72.8334 86 68.0833V50.1667H46.5833V53.75Z" fill="#6294F9"/>
</g>
<defs>
<clipPath id="clip0_1110_1662">
<rect width="86" height="86" fill="white"/>
</clipPath>
</defs>
</svg>
