<svg width="86" height="86" viewBox="0 0 86 86" fill="none" xmlns="http://www.w3.org/2000/svg">
<g clip-path="url(#clip0_1074_2292)">
<path d="M17.9167 13.1958H68.0833C72.8334 13.2015 77.3873 15.091 80.746 18.4498C84.1048 21.8085 85.9943 26.3624 86 31.1125H0C0.00568982 26.3624 1.89516 21.8085 5.25395 18.4498C8.61275 15.091 13.1666 13.2015 17.9167 13.1958Z" fill="#2C64D6"/>
<path d="M0 57.3334C0.00568982 62.0834 1.89516 66.6373 5.25395 69.9961C8.61275 73.3549 13.1666 75.2444 17.9167 75.25H68.0833C72.8334 75.2444 77.3873 73.3549 80.746 69.9961C84.1048 66.6373 85.9943 62.0834 86 57.3334V35.8334H0V57.3334ZM25.0833 55.5417C25.0833 56.6048 24.7681 57.644 24.1775 58.5279C23.5869 59.4118 22.7474 60.1007 21.7653 60.5076C20.7831 60.9144 19.7024 61.0208 18.6597 60.8134C17.6171 60.606 16.6593 60.0941 15.9076 59.3424C15.1559 58.5907 14.644 57.633 14.4366 56.5903C14.2292 55.5477 14.3357 54.4669 14.7425 53.4848C15.1493 52.5026 15.8382 51.6632 16.7221 51.0726C17.6061 50.4819 18.6453 50.1667 19.7083 50.1667C21.1339 50.1667 22.501 50.733 23.509 51.741C24.517 52.749 25.0833 54.1162 25.0833 55.5417Z" fill="#6294F9"/>
</g>
<defs>
<clipPath id="clip0_1074_2292">
<rect width="86" height="86" fill="white"/>
</clipPath>
</defs>
</svg>
