<svg width="86" height="86" viewBox="0 0 86 86" fill="none" xmlns="http://www.w3.org/2000/svg">
<g clip-path="url(#clip0_1110_1641)">
<path d="M57.335 82.4166C57.335 81.7079 57.5451 81.0151 57.9389 80.4258C58.3326 79.8366 58.8922 79.3773 59.547 79.1061C60.2018 78.8349 60.9223 78.7639 61.6174 78.9022C62.3125 79.0404 62.951 79.3817 63.4521 79.8828C63.9532 80.384 64.2945 81.0225 64.4328 81.7176C64.571 82.4127 64.5001 83.1332 64.2289 83.7879C63.9576 84.4427 63.4984 85.0023 62.9091 85.3961C62.3198 85.7898 61.627 86 60.9183 86C59.9679 86 59.0565 85.6225 58.3845 84.9504C57.7125 84.2784 57.335 83.367 57.335 82.4166ZM73.5854 74.8128C74.2571 74.1408 74.6345 73.2296 74.6345 72.2794C74.6345 71.3292 74.2571 70.418 73.5854 69.746C70.2255 66.3871 65.6692 64.5002 60.9183 64.5002C56.1674 64.5002 51.6111 66.3871 48.2512 69.746C47.5985 70.4218 47.2373 71.327 47.2455 72.2665C47.2536 73.206 47.6305 74.1048 48.2949 74.7692C48.9592 75.4335 49.858 75.8104 50.7975 75.8186C51.7371 75.8267 52.6422 75.4655 53.318 74.8128C55.3666 72.8601 58.0881 71.7707 60.9183 71.7707C63.7484 71.7707 66.47 72.8601 68.5185 74.8128C69.1905 75.4846 70.1018 75.862 71.052 75.862C72.0021 75.862 72.9134 75.4846 73.5854 74.8128ZM83.7226 64.6791C84.3944 64.0072 84.7718 63.0959 84.7718 62.1457C84.7718 61.1956 84.3944 60.2843 83.7226 59.6123C77.6699 53.5729 69.4687 50.1812 60.9183 50.1812C52.3679 50.1812 44.1667 53.5729 38.114 59.6123C37.4612 60.2881 37.1 61.1933 37.1082 62.1328C37.1164 63.0724 37.4932 63.9711 38.1576 64.6355C38.822 65.2999 39.7207 65.6767 40.6603 65.6849C41.5998 65.6931 42.505 65.3319 43.1808 64.6791C47.89 59.9842 54.2685 57.3478 60.9183 57.3478C67.5681 57.3478 73.9466 59.9842 78.6558 64.6791C79.3278 65.3509 80.239 65.7283 81.1892 65.7283C82.1394 65.7283 83.0507 65.3509 83.7226 64.6791Z" fill="#2C64D6"/>
<path d="M57.335 82.4167C57.335 81.7079 57.5451 81.0151 57.9389 80.4259C58.3326 79.8366 58.8922 79.3773 59.547 79.1061C60.2018 78.8349 60.9223 78.7639 61.6174 78.9022C62.3125 79.0404 62.951 79.3817 63.4521 79.8829C63.9532 80.384 64.2945 81.0225 64.4328 81.7176C64.571 82.4127 64.5001 83.1332 64.2289 83.7879C63.9576 84.4427 63.4984 85.0023 62.9091 85.3961C62.3198 85.7898 61.627 86 60.9183 86C59.9679 86 59.0565 85.6225 58.3845 84.9505C57.7125 84.2785 57.335 83.367 57.335 82.4167ZM73.5854 74.8128C74.2571 74.1408 74.6345 73.2296 74.6345 72.2794C74.6345 71.3292 74.2571 70.418 73.5854 69.746C70.2255 66.3871 65.6692 64.5002 60.9183 64.5002C56.1674 64.5002 51.6111 66.3871 48.2512 69.746C47.5985 70.4218 47.2373 71.327 47.2455 72.2665C47.2536 73.206 47.6305 74.1048 48.2949 74.7692C48.9592 75.4335 49.858 75.8104 50.7975 75.8186C51.7371 75.8267 52.6422 75.4656 53.318 74.8128C55.3666 72.8601 58.0881 71.7707 60.9183 71.7707C63.7484 71.7707 66.47 72.8601 68.5185 74.8128C69.1905 75.4846 70.1018 75.862 71.052 75.862C72.0021 75.862 72.9134 75.4846 73.5854 74.8128ZM83.7226 64.6792C84.3944 64.0072 84.7718 63.0959 84.7718 62.1457C84.7718 61.1956 84.3944 60.2843 83.7226 59.6123C77.6699 53.5729 69.4687 50.1812 60.9183 50.1812C52.3679 50.1812 44.1667 53.5729 38.114 59.6123C37.4612 60.2881 37.1 61.1933 37.1082 62.1328C37.1164 63.0724 37.4932 63.9711 38.1576 64.6355C38.822 65.2999 39.7207 65.6767 40.6603 65.6849C41.5998 65.6931 42.505 65.3319 43.1808 64.6792C47.89 59.9842 54.2685 57.3478 60.9183 57.3478C67.5681 57.3478 73.9466 59.9842 78.6558 64.6792C79.3278 65.3509 80.239 65.7283 81.1892 65.7283C82.1394 65.7283 83.0507 65.3509 83.7226 64.6792ZM33.0471 69.746C32.0487 68.7477 31.2567 67.5626 30.7163 66.2582C30.176 64.9538 29.8979 63.5558 29.8979 62.144C29.8979 60.7321 30.176 59.334 30.7163 58.0297C31.2567 56.7253 32.0487 55.5402 33.0471 54.5419C39.9738 47.6346 49.2188 43.5458 58.9893 43.0684C68.7598 42.5911 78.3593 45.7592 85.9264 51.9583C85.5879 46.1454 83.475 40.576 79.8728 36.0011C76.2706 31.4263 71.3522 28.066 65.7809 26.3733C65.1663 26.1832 64.6083 25.8438 64.1568 25.3855C63.7054 24.9272 63.3745 24.3641 63.1937 23.7467C61.2976 17.6537 57.4227 12.3675 52.1828 8.72554C46.9429 5.08355 40.6377 3.294 34.2658 3.64036C27.894 3.98672 21.8199 6.44918 17.0057 10.6377C12.1914 14.8262 8.91237 20.5012 7.68787 26.7639C6.42814 33.0945 7.44333 39.6666 10.5545 45.322C6.92981 47.1934 3.98237 50.1532 2.12624 53.7858C0.270107 57.4184 -0.40146 61.5411 0.205871 65.575C1.14048 70.261 3.64957 74.4865 7.31663 77.55C10.9837 80.6135 15.5882 82.3307 20.3657 82.4167H45.8074C41.5499 78.1972 37.2965 73.9737 33.0471 69.746Z" fill="#6294F9"/>
</g>
<defs>
<clipPath id="clip0_1110_1641">
<rect width="86" height="86" fill="white"/>
</clipPath>
</defs>
</svg>
