<svg width="86" height="86" viewBox="0 0 86 86" fill="none" xmlns="http://www.w3.org/2000/svg">
<g clip-path="url(#clip0_1110_10929)">
<path d="M70.9922 29.6085C66.384 25.004 60.2601 22.467 53.7492 22.467H53.7528C50.5498 22.4585 47.3769 23.0853 44.4178 24.3111C41.4587 25.537 38.772 27.3375 36.5134 29.6085C36.1807 29.9412 35.9168 30.3362 35.7367 30.7709C35.5567 31.2056 35.464 31.6715 35.464 32.142C35.464 32.6125 35.5567 33.0784 35.7367 33.513C35.9168 33.9477 36.1807 34.3427 36.5134 34.6754C36.8461 35.0081 37.241 35.272 37.6757 35.452C38.1104 35.6321 38.5763 35.7248 39.0468 35.7248C39.5173 35.7248 39.9832 35.6321 40.4179 35.452C40.8525 35.272 41.2475 35.0081 41.5802 34.6754C44.8303 31.4253 49.1554 29.6336 53.7528 29.6336C58.3502 29.6336 62.6753 31.4217 65.9254 34.6754C66.2581 35.0081 66.653 35.272 67.0877 35.452C67.5224 35.6321 67.9883 35.7248 68.4588 35.7248C68.9293 35.7248 69.3952 35.6321 69.8299 35.452C70.2645 35.272 70.6595 35.0081 70.9922 34.6754C71.3249 34.3427 71.5888 33.9477 71.7688 33.513C71.9489 33.0784 72.0416 32.6125 72.0416 32.142C72.0416 31.6715 71.9489 31.2056 71.7688 30.7709C71.5888 30.3362 71.3249 29.9412 70.9922 29.6085Z" fill="#2C64D6"/>
<path d="M53.7492 4.55029C41.8669 4.55029 30.4038 9.53829 22.2947 18.2315C21.6827 18.9327 21.3672 19.8443 21.4149 20.7738C21.4625 21.7032 21.8696 22.5778 22.5501 23.2127C23.2306 23.8477 24.1313 24.1932 25.0618 24.1764C25.9924 24.1596 26.88 23.7818 27.5371 23.1227C34.2917 15.8772 43.8484 11.7205 53.7492 11.7205C63.6499 11.7205 73.2031 15.8772 79.9613 23.1227C80.6099 23.8179 81.5081 24.2269 82.4583 24.2599C83.4085 24.2928 84.3329 23.9469 85.0281 23.2983C85.7233 22.6497 86.1324 21.7515 86.1653 20.8012C86.1982 19.851 85.8523 18.9266 85.2037 18.2315C77.0982 9.53829 65.6315 4.55029 53.7492 4.55029Z" fill="#2C64D6"/>
<path d="M71.6667 53.75H57.3333V39.4166C57.3333 38.4663 56.9558 37.5549 56.2838 36.8828C55.6118 36.2108 54.7004 35.8333 53.75 35.8333C52.7996 35.8333 51.8882 36.2108 51.2162 36.8828C50.5442 37.5549 50.1667 38.4663 50.1667 39.4166V53.75H14.3333C6.4285 53.75 0 60.1785 0 68.0833V71.6666C0 79.5715 6.4285 86 14.3333 86H71.6667C79.5715 86 86 79.5715 86 71.6666V68.0833C86 60.1785 79.5715 53.75 71.6667 53.75ZM16.125 75.25C15.4189 75.2497 14.7198 75.1104 14.0675 74.84C13.4153 74.5696 12.8227 74.1733 12.3236 73.6739C11.8244 73.1744 11.4286 72.5816 11.1586 71.9291C10.8886 71.2767 10.7498 70.5775 10.75 69.8714C10.7502 69.1653 10.8895 68.4662 11.16 67.8139C11.4304 67.1617 11.8266 66.5691 12.3261 66.07C12.8255 65.5708 13.4184 65.175 14.0708 64.905C14.7233 64.635 15.4225 64.4962 16.1286 64.4964C17.5546 64.4969 18.922 65.0638 19.93 66.0725C20.938 67.0812 21.5041 68.449 21.5036 69.875C21.5031 71.301 20.9362 72.6684 19.9275 73.6764C18.9188 74.6844 17.551 75.2505 16.125 75.25ZM34.0417 75.25C33.3356 75.2497 32.6364 75.1104 31.9842 74.84C31.3319 74.5696 30.7393 74.1733 30.2402 73.6739C29.7411 73.1744 29.3453 72.5816 29.0753 71.9291C28.8053 71.2767 28.6664 70.5775 28.6667 69.8714C28.6669 69.1653 28.8062 68.4662 29.0766 67.8139C29.3471 67.1617 29.7433 66.5691 30.2428 66.07C30.7422 65.5708 31.3351 65.175 31.9875 64.905C32.6399 64.635 33.3392 64.4962 34.0452 64.4964C35.4713 64.4969 36.8387 65.0638 37.8467 66.0725C38.8547 67.0812 39.4207 68.449 39.4202 69.875C39.4198 71.301 38.8528 72.6684 37.8442 73.6764C36.8355 74.6844 35.4677 75.2505 34.0417 75.25Z" fill="#6294F9"/>
</g>
<defs>
<clipPath id="clip0_1110_10929">
<rect width="86" height="86" fill="white"/>
</clipPath>
</defs>
</svg>
