<svg width="86" height="86" viewBox="0 0 86 86" fill="none" xmlns="http://www.w3.org/2000/svg">
<path d="M65.3347 8.19049H20.2112C11.3251 8.19049 4.0957 14.697 4.0957 22.6945V63.3056C4.0957 71.3031 11.3251 77.8095 20.2112 77.8095H65.3347C74.2208 77.8095 81.4502 71.3031 81.4502 63.3056V22.6945C81.4502 14.697 74.2208 8.19049 65.3347 8.19049ZM39.5499 54.6032C39.5499 55.3725 39.2103 56.1104 38.6058 56.6544C38.0014 57.1984 37.1816 57.504 36.3267 57.504C35.4719 57.504 34.6521 57.1984 34.0477 56.6544C33.4432 56.1104 33.1036 55.3725 33.1036 54.6032V31.3968C33.1036 30.6275 33.4432 29.8897 34.0477 29.3457C34.6521 28.8017 35.4719 28.496 36.3267 28.496C37.1816 28.496 38.0014 28.8017 38.6058 29.3457C39.2103 29.8897 39.5499 30.6275 39.5499 31.3968V54.6032ZM52.4423 54.6032C52.4423 55.3725 52.1027 56.1104 51.4982 56.6544C50.8938 57.1984 50.074 57.504 49.2192 57.504C48.3643 57.504 47.5445 57.1984 46.9401 56.6544C46.3356 56.1104 45.9961 55.3725 45.9961 54.6032V31.3968C45.9961 30.6275 46.3356 29.8897 46.9401 29.3457C47.5445 28.8017 48.3643 28.496 49.2192 28.496C50.074 28.496 50.8938 28.8017 51.4982 29.3457C52.1027 29.8897 52.4423 30.6275 52.4423 31.3968V54.6032Z" fill="#6294F9"/>
</svg>
