<svg width="86" height="86" viewBox="0 0 86 86" fill="none" xmlns="http://www.w3.org/2000/svg">
<path d="M17.9168 78.8334C19.8176 78.8334 21.6404 78.0783 22.9844 76.7343C24.3284 75.3903 25.0835 73.5674 25.0835 71.6667V50.1667C25.0835 48.266 24.3284 46.4431 22.9844 45.0991C21.6404 43.7551 19.8176 43 17.9168 43V39.4167C17.9168 32.7642 20.5595 26.3841 25.2636 21.6801C29.9676 16.9761 36.3477 14.3334 43.0002 14.3334C49.6527 14.3334 56.0327 16.9761 60.7368 21.6801C65.4408 26.3841 68.0835 32.7642 68.0835 39.4167V43C66.1828 43 64.3599 43.7551 63.0159 45.0991C61.6719 46.4431 60.9168 48.266 60.9168 50.1667V71.6667H50.1668C49.2165 71.6667 48.305 72.0442 47.633 72.7162C46.961 73.3882 46.5835 74.2997 46.5835 75.25C46.5835 76.2004 46.961 77.1118 47.633 77.7838C48.305 78.4558 49.2165 78.8334 50.1668 78.8334H68.0835C72.1901 78.8211 76.1677 77.3985 79.3507 74.8037C82.5336 72.209 84.7286 68.5996 85.5682 64.5797C86.4077 60.5599 85.8409 56.3737 83.9626 52.7218C82.0843 49.07 79.0085 46.1743 75.2502 44.5194V39.4167C75.2502 30.8635 71.8524 22.6605 65.8044 16.6125C59.7563 10.5644 51.5534 7.16669 43.0002 7.16669C34.4469 7.16669 26.244 10.5644 20.196 16.6125C14.1479 22.6605 10.7502 30.8635 10.7502 39.4167V44.5194C6.99182 46.1743 3.91604 49.07 2.03773 52.7218C0.159422 56.3737 -0.407396 60.5599 0.432167 64.5797C1.27173 68.5996 3.46671 72.209 6.64965 74.8037C9.83259 77.3985 13.8103 78.8211 17.9168 78.8334Z" fill="#6294F9"/>
</svg>
