<svg width="86" height="86" viewBox="0 0 86 86" fill="none" xmlns="http://www.w3.org/2000/svg">
<g clip-path="url(#clip0_1050_4641)">
<path d="M40.2768 86C39.1028 85.9958 37.9438 85.7366 36.8798 85.2403C35.142 84.4664 33.7462 83.0849 32.9545 81.3551C32.1628 79.6252 32.0296 77.6659 32.5798 75.8448L38.1734 57.3333H24.9939C23.3148 57.3354 21.6585 56.944 20.1579 56.1907C18.6572 55.4373 17.3539 54.3429 16.3524 52.9951C15.3509 51.6473 14.679 50.0837 14.3907 48.4295C14.1023 46.7753 14.2054 45.0766 14.6918 43.4694L25.5278 7.63608C26.1883 5.41971 27.5499 3.47735 29.4081 2.10051C31.2662 0.723669 33.5209 -0.0133756 35.8335 -4.33535e-06H49.0668C50.5709 0.00125393 52.0523 0.366664 53.3845 1.065C54.7167 1.76333 55.86 2.77382 56.7167 4.01012C57.5734 5.24641 58.118 6.67175 58.3041 8.16432C58.4901 9.65689 58.312 11.1723 57.785 12.5811L51.7543 28.6667H60.9168C62.8699 28.6665 64.7862 29.1985 66.4597 30.2054C68.1333 31.2123 69.5009 32.6561 70.4157 34.3817C71.3304 36.1074 71.7578 38.0496 71.6518 39.9999C71.5459 41.9501 70.9106 43.8346 69.8143 45.451L46.8809 82.3593C46.172 83.4696 45.1961 84.3846 44.0424 85.0206C42.8888 85.6565 41.5942 85.9933 40.2768 86Z" fill="#6294F9"/>
</g>
<defs>
<clipPath id="clip0_1050_4641">
<rect width="86" height="86" fill="white"/>
</clipPath>
</defs>
</svg>
