<svg width="86" height="86" viewBox="0 0 86 86" fill="none" xmlns="http://www.w3.org/2000/svg">
<g clip-path="url(#clip0_1074_5089)">
<path d="M86.0002 43C86.0002 37.1735 83.4417 31.6766 79.1023 28.2223C79.3521 25.3589 78.9714 22.4756 77.9871 19.7751C77.0027 17.0747 75.4386 14.6227 73.4048 12.5918C69.2839 8.47454 63.6043 6.39979 58.0788 7.0197C50.862 -2.1393 35.2709 -2.3113 28.2225 6.89429C25.3593 6.63929 22.475 7.01753 19.7743 8.00218C17.0737 8.98683 14.6228 10.5538 12.5956 12.5918C8.47833 16.7126 6.4 22.4101 7.0235 27.9177C-2.1355 35.1345 -2.31108 50.7256 6.89808 57.7776C6.64825 60.641 7.0289 63.5243 8.01324 66.2248C8.99759 68.9252 10.5617 71.3772 12.5956 73.4081C16.7164 77.5254 22.4032 79.6073 27.9215 78.9802C35.1383 88.1392 50.7294 88.3112 57.7778 79.1056C60.6404 79.3525 63.5224 78.9704 66.2218 77.9862C68.9212 77.002 71.3728 75.4395 73.4048 73.4081C77.522 69.2873 79.6003 63.5898 78.9768 58.0822C81.1784 56.2349 82.9482 53.9274 84.1616 51.3222C85.3751 48.717 86.0026 45.8775 86.0002 43.0035V43ZM62.8518 37.8615L45.8704 54.2301C41.703 58.3904 34.8839 58.3545 30.7165 54.1835L22.6468 46.6872C21.9715 46.0354 21.5789 45.1447 21.5533 44.2066C21.5278 43.2684 21.8713 42.3576 22.5101 41.67C23.1489 40.9824 24.0319 40.5729 24.9694 40.5294C25.907 40.486 26.8241 40.8121 27.5238 41.4376L35.6866 49.0235C37.1844 50.5178 39.4491 50.5142 40.8466 49.1131L57.8746 32.6979C58.5588 32.0378 59.4773 31.6767 60.4278 31.6938C61.3784 31.7109 62.2832 32.105 62.9432 32.7892C63.6032 33.4735 63.9644 34.3919 63.9473 35.3425C63.9301 36.293 63.5361 37.1978 62.8518 37.8579V37.8615Z" fill="#6294F9"/>
</g>
<defs>
<clipPath id="clip0_1074_5089">
<rect width="86" height="86" fill="white"/>
</clipPath>
</defs>
</svg>
