<svg width="86" height="86" viewBox="0 0 86 86" fill="none" xmlns="http://www.w3.org/2000/svg">
<path d="M62.79 53.9846C68.3628 53.9846 72.4759 55.1138 75.1296 57.3722C77.8212 59.6306 79.167 62.6418 79.167 66.4058C79.167 68.8524 78.5225 71.1108 77.2336 73.181C75.9826 75.2136 74.0492 76.8509 71.4334 78.0931C68.8556 79.2975 65.6522 79.8998 61.8233 79.8998C59.018 79.8998 56.2317 79.561 53.4643 78.8835C52.2552 78.5834 51.1204 78.2278 50.0601 77.8169C47.8925 76.9769 47.1722 74.4223 48.178 72.3265C49.3793 69.8234 52.5301 68.9989 55.1698 69.8596C55.3393 69.9148 55.51 69.968 55.682 70.0193C57.6154 70.5839 59.5488 70.8662 61.4822 70.8662C63.4155 70.8662 64.9509 70.5086 66.0882 69.7934C67.2634 69.0406 67.851 68.0055 67.851 66.6881C67.851 65.3707 67.2823 64.3733 66.145 63.6957C65.0078 63.0182 62.9985 62.6795 60.1174 62.6795H55.8525C52.3355 62.6795 49.5727 59.6683 49.8747 56.1642L50.8307 45.0721C51.0981 41.9696 53.6945 39.5873 56.8085 39.5873H72.3458C74.7312 39.5873 76.665 41.521 76.665 43.9065C76.665 46.2919 74.7312 48.2257 72.3458 48.2257H63.2641C61.7726 48.2257 60.528 49.3646 60.396 50.8503L60.354 51.3225C60.2269 52.753 61.3539 53.9846 62.79 53.9846Z" fill="#2C64D6"/>
<path fill-rule="evenodd" clip-rule="evenodd" d="M20.0405 11.8307H65.9603C70.3082 11.8359 74.4766 13.5659 77.551 16.6413C80.6255 19.7167 82.355 23.8863 82.3602 28.2356V35.2645H62.6577C52.8179 35.2645 44.6061 42.7771 43.7327 52.5782L41.8088 74.1693H29.8805C29.0106 74.1693 28.1763 73.8236 27.5612 73.2083C26.9461 72.593 26.6005 71.7585 26.6005 70.8883C26.6005 70.0182 26.9461 69.1836 27.5612 68.5683C28.1763 67.953 29.0106 67.6073 29.8805 67.6073H39.7204V64.3264H20.0405C15.6926 64.3212 11.5243 62.5911 8.4498 59.5157C5.37535 56.4403 3.64583 52.2707 3.64062 47.9215V28.2356C3.64583 23.8863 5.37535 19.7167 8.4498 16.6413C11.5243 13.5659 15.6926 11.8359 20.0405 11.8307Z" fill="#6294F9"/>
</svg>
