<svg width="86" height="86" viewBox="0 0 86 86" fill="none" xmlns="http://www.w3.org/2000/svg">
<path fill-rule="evenodd" clip-rule="evenodd" d="M60.8396 24.1164C52.1448 24.1164 46.202 30.0248 42.7624 34.9012C39.3228 30.0248 33.38 24.1164 24.6853 24.1164C19.5866 24.1164 14.6966 26.1419 11.0913 29.7472C7.48592 33.3526 5.46045 38.2425 5.46045 43.3413C5.46045 48.44 7.48592 53.3299 11.0913 56.9353C14.6966 60.5407 19.5866 62.5661 24.6853 62.5661C33.38 62.5661 39.3228 56.6577 42.7624 51.7814C46.202 56.6577 52.1448 62.5661 60.8396 62.5661C65.9383 62.5661 70.8282 60.5407 74.4336 56.9353C78.0389 53.3299 80.0644 48.44 80.0644 43.3413C80.0644 38.2425 78.0389 33.3526 74.4336 29.7472C70.8282 26.1419 65.9383 24.1164 60.8396 24.1164ZM42.7624 36.96C42.7466 36.9353 42.7308 36.9106 42.7149 36.8858C42.7308 36.9106 42.7466 36.9353 42.7624 36.96C42.7624 36.96 42.7624 36.96 42.7624 36.96ZM24.6853 54.2449C21.7935 54.2449 19.0201 53.0961 16.9753 51.0513C14.9304 49.0065 13.7817 46.2331 13.7817 43.3413C13.7817 40.4494 14.9304 37.676 16.9753 35.6312C19.0201 33.5864 21.7935 32.4376 24.6853 32.4376C28.2975 32.4376 31.3175 34.4112 33.6915 36.9136C35.8219 39.1591 37.3324 41.7292 38.1649 43.3442C37.3393 44.9629 35.8386 47.532 33.7126 49.775C31.3449 52.273 28.322 54.2449 24.6853 54.2449ZM60.8396 54.2449C57.2273 54.2449 54.2074 52.2713 51.8333 49.769C49.7033 47.5238 48.193 44.9542 47.3604 43.3391C48.1878 41.7216 49.689 39.1529 51.8146 36.9097C54.1826 34.4106 57.2048 32.4376 60.8396 32.4376C63.7314 32.4376 66.5048 33.5864 68.5496 35.6312C70.5944 37.676 71.7432 40.4494 71.7432 43.3413C71.7432 46.2331 70.5944 49.0065 68.5496 51.0513C66.5048 53.0961 63.7314 54.2449 60.8396 54.2449ZM47.527 45.9706C46.8902 44.9323 46.4052 44.0106 46.0766 43.3413C46.7069 42.0463 47.9156 39.8145 49.6754 37.6209C47.9155 39.8145 46.7069 42.0463 46.0765 43.3413C46.4052 44.0106 46.8902 44.9323 47.527 45.9706ZM18.6504 53.7728C17.7495 53.2516 16.9124 52.6116 16.1637 51.8629C13.9036 49.6028 12.6339 46.5375 12.6339 43.3413C12.6339 40.145 13.9036 37.0797 16.1637 34.8196C17.7175 33.2658 19.6519 32.1801 21.7478 31.6533C19.6519 32.1801 17.7175 33.2658 16.1637 34.8196C13.9036 37.0797 12.6339 40.145 12.6339 43.3413C12.6339 46.5375 13.9036 49.6028 16.1637 51.8629C16.9124 52.6116 17.7495 53.2516 18.6504 53.7728Z" fill="#6294F9"/>
</svg>
