<svg width="86" height="86" viewBox="0 0 86 86" fill="none" xmlns="http://www.w3.org/2000/svg">
<path d="M86 32.25V64.5C86 74.3792 77.9626 82.4167 68.0833 82.4167H17.9167C8.03742 82.4167 0 74.3792 0 64.5V32.25H86ZM53.9184 54.4667L37.3132 45.58C36.8059 45.2756 36.227 45.1113 35.6354 45.1039C35.0438 45.0964 34.4609 45.2461 33.9461 45.5375C33.4313 45.829 33.003 46.2519 32.705 46.763C32.4071 47.2741 32.25 47.8551 32.25 48.4467V66.2236C32.25 66.8152 32.4071 67.3962 32.705 67.9073C33.003 68.4184 33.4313 68.8412 33.9461 69.1327C34.4609 69.4242 35.0438 69.5738 35.6354 69.5664C36.227 69.5589 36.8059 69.3946 37.3132 69.0902L53.9184 60.2036C54.4134 59.9065 54.823 59.4864 55.1074 58.984C55.3919 58.4816 55.5413 57.9142 55.5413 57.3369C55.5413 56.7596 55.3919 56.1922 55.1074 55.6898C54.823 55.1875 54.4134 54.7673 53.9184 54.4702V54.4667Z" fill="#6294F9"/>
<path d="M68.0833 4.55029H60.6085L39.1085 26.0503H54.0582L74.4043 5.70413C72.4371 4.95879 70.3086 4.55029 68.0833 4.55029Z" fill="#2C64D6"/>
<path d="M86 22.467V26.0503H64.1918L80.5892 9.65296C83.9252 12.9066 86 17.4503 86 22.467Z" fill="#2C64D6"/>
<path d="M15.9028 26.0503L37.7038 4.55029H50.4748L28.9748 26.0503H15.9028Z" fill="#2C64D6"/>
<path d="M27.4985 4.55029L5.6975 26.0503H0V22.467C0 12.5877 8.03742 4.55029 17.9167 4.55029H27.4985Z" fill="#2C64D6"/>
</svg>
