<svg width="86" height="86" viewBox="0 0 86 86" fill="none" xmlns="http://www.w3.org/2000/svg">
<g clip-path="url(#clip0_1074_10270)">
<path d="M66.5813 7.66834L44.1317 0.182758C43.3966 -0.0620588 42.6021 -0.0620588 41.867 0.182758L19.4174 7.66834C15.8481 8.854 12.7432 11.1343 10.5438 14.1854C8.34448 17.2364 7.16257 20.903 7.16602 24.6641V43C7.16602 70.1008 40.1327 85.0683 41.5445 85.6918C42.0025 85.8953 42.4982 86.0005 42.9994 86.0005C43.5005 86.0005 43.9962 85.8953 44.4542 85.6918C45.866 85.0683 78.8327 70.1008 78.8327 43V24.6641C78.8361 20.903 77.6542 17.2364 75.4549 14.1854C73.2555 11.1343 70.1506 8.854 66.5813 7.66834ZM59.9055 34.8193L44.5975 50.1273C43.9711 50.7579 43.2256 51.2578 42.4044 51.5979C41.5832 51.9381 40.7026 52.1118 39.8138 52.1088H39.6955C38.7885 52.0949 37.8938 51.8973 37.0654 51.5277C36.237 51.1582 35.4922 50.6245 34.8759 49.9588L26.6128 41.3588C26.2549 41.0268 25.9687 40.6252 25.7716 40.1786C25.5745 39.7319 25.4708 39.2498 25.4668 38.7616C25.4627 38.2735 25.5585 37.7896 25.7481 37.3398C25.9378 36.89 26.2173 36.4837 26.5697 36.1458C26.922 35.8079 27.3396 35.5456 27.797 35.3749C28.2543 35.2042 28.7417 35.1287 29.2293 35.1531C29.7168 35.1776 30.1943 35.3014 30.6322 35.5169C31.0702 35.7325 31.4596 36.0353 31.7764 36.4067L39.8174 44.7917L54.8244 29.7417C55.5002 29.0889 56.4053 28.7278 57.3449 28.7359C58.2844 28.7441 59.1832 29.1209 59.8475 29.7853C60.5119 30.4497 60.8888 31.3484 60.8969 32.288C60.9051 33.2275 60.5439 34.1327 59.8912 34.8085L59.9055 34.8193Z" fill="#6294F9"/>
</g>
<defs>
<clipPath id="clip0_1074_10270">
<rect width="86" height="86" fill="white"/>
</clipPath>
</defs>
</svg>
