<svg width="86" height="86" viewBox="0 0 86 86" fill="none" xmlns="http://www.w3.org/2000/svg">
<g clip-path="url(#clip0_1074_238)">
<path d="M32.25 14.3333C32.25 6.41775 44.2828 0 59.125 0C73.9672 0 86 6.41775 86 14.3333C86 22.2489 73.9672 28.6667 59.125 28.6667C44.2828 28.6667 32.25 22.2489 32.25 14.3333ZM59.125 35.8333C55.4449 35.8333 51.9548 35.4212 48.7656 34.7046C43.8958 31.0532 35.9157 28.6667 26.875 28.6667C12.0328 28.6667 0 35.0844 0 43C0 50.9156 12.0328 57.3333 26.875 57.3333C41.7172 57.3333 53.75 50.9156 53.75 43C53.75 42.8961 53.7249 42.7957 53.7213 42.6918H53.75V50.1667C53.75 58.0822 41.7172 64.5 26.875 64.5C12.0328 64.5 0 58.0822 0 50.1667V57.3333C0 65.2489 12.0328 71.6667 26.875 71.6667C41.7172 71.6667 53.75 65.2489 53.75 57.3333V64.5C53.75 72.4156 41.7172 78.8333 26.875 78.8333C12.0328 78.8333 0 72.4156 0 64.5V71.6667C0 79.5822 12.0328 86 26.875 86C41.7172 86 53.75 79.5822 53.75 71.6667V71.38C55.4879 71.5663 57.2832 71.6667 59.125 71.6667C73.9672 71.6667 86 65.2489 86 57.3333V50.1667C86 57.7598 74.9203 63.9589 60.9167 64.4534V57.2868C74.9203 56.7923 86 50.5967 86 43V35.8333C86 43.4264 74.9203 49.6256 60.9167 50.1201V42.9534C74.9203 42.4589 86 36.2633 86 28.6667V21.5C86 29.4156 73.9672 35.8333 59.125 35.8333Z" fill="#6294F9"/>
</g>
<defs>
<clipPath id="clip0_1074_238">
<rect width="86" height="86" fill="white"/>
</clipPath>
</defs>
</svg>
