<svg width="86" height="86" viewBox="0 0 86 86" fill="none" xmlns="http://www.w3.org/2000/svg">
<g clip-path="url(#clip0_1070_5221)">
<path fill-rule="evenodd" clip-rule="evenodd" d="M57.5124 6.54752C57.3584 6.86514 57.1434 7.14933 56.8796 7.38385L50.0681 13.4374H64.5C74.8899 13.4374 83.3125 21.8601 83.3125 32.2499V61.8124C83.3125 71.2926 76.3008 79.1334 67.1808 80.4355C67.2068 80.8035 67.1568 81.1728 67.0338 81.5206C66.9109 81.8684 66.7177 82.1872 66.4662 82.4571C66.2147 82.727 65.9104 82.9422 65.5721 83.0893C65.2338 83.2365 64.8689 83.3124 64.5 83.3124H59.125C58.4122 83.3124 57.7287 83.0293 57.2247 82.5253C56.7206 82.0213 56.4375 81.3377 56.4375 80.6249H29.5625C29.5625 81.3377 29.2794 82.0213 28.7753 82.5253C28.2713 83.0293 27.5878 83.3124 26.875 83.3124H21.5C21.1311 83.3124 20.7662 83.2365 20.4279 83.0893C20.0896 82.9422 19.7853 82.727 19.5338 82.4571C19.2823 82.1872 19.0891 81.8684 18.9662 81.5206C18.8432 81.1728 18.7932 80.8035 18.8192 80.4355C9.69919 79.1334 2.6875 71.2926 2.6875 61.8124V32.2499C2.6875 21.8601 11.1101 13.4374 21.5 13.4374H35.9319L29.1204 7.38385C28.5876 6.91021 28.2648 6.24432 28.223 5.53267C28.1811 4.82102 28.4237 4.12189 28.8973 3.5891C29.371 3.0563 30.0369 2.73348 30.7485 2.69165C31.4602 2.64982 32.1593 2.8924 32.6921 3.36604L43 12.5304L53.3079 3.36604C53.5717 3.13151 53.8791 2.95125 54.2126 2.83554C54.5461 2.71983 54.8991 2.67093 55.2515 2.69165C55.6039 2.71236 55.9487 2.80228 56.2663 2.95626C56.584 3.11025 56.8681 3.32528 57.1027 3.5891C57.3372 3.85291 57.5174 4.16033 57.6332 4.49381C57.7489 4.82729 57.7978 5.1803 57.777 5.53267C57.7563 5.88505 57.6664 6.22989 57.5124 6.54752ZM54.1798 55.8569C55.2882 56.5378 56.555 56.8782 57.98 56.8782C59.3893 56.8782 60.6481 56.5378 61.7565 55.8569C62.8649 55.1761 63.7279 54.1864 64.3454 52.888C64.9788 51.5738 65.2954 50.022 65.2954 48.2327C65.2954 46.4435 64.9788 44.8996 64.3454 43.6012C63.7279 42.287 62.8649 41.2894 61.7565 40.6086C60.6481 39.9277 59.3893 39.5873 57.98 39.5873C56.555 39.5873 55.2882 39.9277 54.1798 40.6086C53.0714 41.2894 52.2005 42.287 51.5672 43.6012C50.9496 44.8996 50.6409 46.4435 50.6409 48.2327C50.6409 50.022 50.9496 51.5738 51.5672 52.888C52.2005 54.1864 53.0714 55.1761 54.1798 55.8569ZM59.8564 51.8905C59.3972 52.6505 58.7717 53.0305 57.98 53.0305C57.1725 53.0305 56.5312 52.6505 56.0562 51.8905C55.597 51.1146 55.3674 49.8953 55.3674 48.2327C55.3674 46.5702 55.597 45.3588 56.0562 44.5988C56.5312 43.8229 57.1725 43.435 57.98 43.435C58.7717 43.435 59.3972 43.8229 59.8564 44.5988C60.3314 45.3588 60.5689 46.5702 60.5689 48.2327C60.5689 49.8953 60.3314 51.1146 59.8564 51.8905ZM41.297 39.5873C43.688 39.5873 45.5723 40.2919 46.9498 41.7011C48.3274 43.1104 49.0162 45.1372 49.0162 47.7815C49.0162 49.6816 48.6441 51.3204 47.8999 52.698C47.1715 54.0597 46.1344 55.0969 44.7885 55.8094C43.4584 56.522 41.9146 56.8782 40.157 56.8782C39.2227 56.8782 38.3281 56.7674 37.4731 56.5457C36.618 56.3399 35.8896 56.0469 35.2879 55.6669L36.998 52.2942C37.8056 52.8643 38.8269 53.1493 40.062 53.1493C41.2495 53.1493 42.2075 52.8247 42.9359 52.1755C43.6801 51.5104 44.1155 50.5525 44.2422 49.3016C43.2921 50.1091 42.0492 50.5129 40.5132 50.5129C39.4682 50.5129 38.5102 50.2991 37.6393 49.8716C36.7684 49.4282 36.0717 48.8107 35.5492 48.019C35.0425 47.2114 34.7892 46.2931 34.7892 45.2638C34.7892 44.1396 35.0742 43.15 35.6442 42.2949C36.2301 41.424 37.0139 40.759 37.9956 40.2998C38.9931 39.8248 40.0936 39.5873 41.297 39.5873ZM41.6296 47.1402C42.3104 47.1402 42.8646 46.9502 43.2921 46.5702C43.7197 46.1743 43.9334 45.6597 43.9334 45.0263C43.9334 44.4088 43.7197 43.91 43.2921 43.53C42.8805 43.1341 42.3183 42.9362 41.6058 42.9362C40.9408 42.9362 40.3945 43.1262 39.967 43.5062C39.5553 43.8862 39.3494 44.4009 39.3494 45.0501C39.3494 45.6834 39.5553 46.1901 39.967 46.5702C40.3945 46.9502 40.9487 47.1402 41.6296 47.1402ZM32.591 48.2803C31.8627 47.4252 30.8097 46.8552 29.4321 46.5702L32.8761 42.865V39.9198H20.8579V43.5537H27.4133L24.4443 46.7602V49.7291H26.4157C28.11 49.7291 28.9571 50.2675 28.9571 51.3442C28.9571 51.8984 28.7196 52.3259 28.2446 52.6268C27.7695 52.9276 27.1282 53.078 26.3207 53.078C25.529 53.078 24.7214 52.9593 23.8981 52.7218C23.0905 52.4842 22.3621 52.1438 21.7129 51.7005L20.0028 55.2394C20.842 55.7619 21.8317 56.1657 22.9718 56.4507C24.1277 56.7357 25.2915 56.8782 26.4632 56.8782C28.0625 56.8782 29.4004 56.6249 30.4772 56.1182C31.5697 55.5957 32.3773 54.9148 32.8998 54.0756C33.4382 53.2364 33.7074 52.3259 33.7074 51.3442C33.7074 50.1408 33.3353 49.1195 32.591 48.2803Z" fill="#6294F9"/>
</g>
<g clip-path="url(#clip1_1070_5221)">
<path d="M56.9226 5.15185C57.1864 4.91733 57.4014 4.63315 57.5554 4.31552C57.7094 3.9979 57.7993 3.65305 57.82 3.30068C57.8407 2.9483 57.7918 2.5953 57.6761 2.26182C57.5604 1.92834 57.3801 1.62092 57.1456 1.3571C56.9111 1.09329 56.6269 0.878251 56.3093 0.724267C55.9917 0.570282 55.6468 0.480366 55.2945 0.459653C54.9421 0.43894 54.5891 0.487835 54.2556 0.603546C53.9221 0.719258 53.6147 0.89952 53.3509 1.13404L43.043 10.2984L32.7351 1.13404C32.2023 0.660405 31.5031 0.417821 30.7915 0.459653C30.0798 0.501485 29.4139 0.824308 28.9403 1.3571C28.4667 1.8899 28.2241 2.58902 28.2659 3.30068C28.3078 4.01233 28.6306 4.67822 29.1634 5.15185L35.9748 11.2054H21.543C11.1531 11.2054 2.73047 19.6281 2.73047 30.0179V59.5804C2.73047 69.0606 9.74216 76.9014 18.8622 78.2035C18.8362 78.5714 18.8862 78.9408 19.0091 79.2886C19.1321 79.6364 19.3253 79.9552 19.5768 80.2251C19.8283 80.4949 20.1326 80.7102 20.4709 80.8573C20.8091 81.0045 21.1741 81.0804 21.543 81.0804H26.918C27.6307 81.0804 28.3143 80.7973 28.8183 80.2933C29.3223 79.7893 29.6055 79.1057 29.6055 78.3929H56.4805C56.4805 79.1057 56.7636 79.7893 57.2676 80.2933C57.7716 80.7973 58.4552 81.0804 59.168 81.0804H64.543C64.9119 81.0804 65.2768 81.0045 65.6151 80.8573C65.9533 80.7102 66.2577 80.4949 66.5092 80.2251C66.7606 79.9552 66.9539 79.6364 67.0768 79.2886C67.1997 78.9408 67.2498 78.5714 67.2238 78.2035C76.3438 76.9014 83.3555 69.0606 83.3555 59.5804V30.0179C83.3555 19.6281 74.9329 11.2054 64.543 11.2054H50.1111L56.9226 5.15185Z" fill="#2C64D6"/>
</g>
<defs>
<clipPath id="clip0_1070_5221">
<rect width="80.5397" height="69.619" fill="white" transform="translate(2.73047 13.6508)"/>
</clipPath>
<clipPath id="clip1_1070_5221">
<rect width="80.5397" height="10.4656" fill="white" transform="translate(2.73047 0.455017)"/>
</clipPath>
</defs>
</svg>
