<svg width="86" height="86" viewBox="0 0 86 86" fill="none" xmlns="http://www.w3.org/2000/svg">
<path d="M32.2503 8.96191H25.0908C21.1492 8.96191 17.917 12.1869 17.917 16.1286H39.4134C39.4134 12.1869 36.1956 8.96191 32.2503 8.96191Z" fill="#2C64D6"/>
<path d="M77.1632 30.9958C76.0846 30.3508 74.7552 30.2791 73.6515 30.8525L64.514 35.4212V34.0416C64.514 28.1291 59.6729 23.2916 53.764 23.2916H17.9307C12.0182 23.2916 7.18066 28.1291 7.18066 34.0416V66.2916C7.18066 72.2005 12.0182 77.038 17.9307 77.038H53.764C59.6729 77.038 64.514 72.2005 64.514 66.288V64.9085L73.6515 69.4772C74.1532 69.728 74.7193 69.8714 75.2604 69.8714C75.8982 69.8714 76.5863 69.6922 77.1632 69.3339C78.1952 68.6889 78.8473 67.5422 78.8473 66.288V34.0416C78.8473 32.7875 78.1952 31.6408 77.1632 30.9958ZM50.1807 41.2083C48.2027 41.2083 46.6045 39.603 46.6045 37.625C46.6045 36.6751 46.9818 35.7641 47.6535 35.0924C48.3252 34.4208 49.2362 34.0434 50.186 34.0434C51.1359 34.0434 52.0469 34.4208 52.7186 35.0924C53.3902 35.7641 53.7676 36.6751 53.7676 37.625C53.7676 39.603 52.1551 41.2083 50.1807 41.2083Z" fill="#6294F9"/>
</svg>
