<svg width="40" height="40" viewBox="0 0 40 40" fill="none" xmlns="http://www.w3.org/2000/svg">
<path d="M36.6668 19.9999C36.6668 10.7952 29.2048 3.33325 20.0002 3.33325C10.7954 3.33325 3.3335 10.7952 3.3335 19.9999C3.3335 29.2046 10.7954 36.6666 20.0002 36.6666" stroke="#6294F9" stroke-width="3" stroke-linecap="round" stroke-linejoin="round"/>
<path d="M21.6665 3.41553C21.6665 3.41553 26.6665 9.99989 26.6665 19.9998" stroke="#6294F9" stroke-width="3" stroke-linecap="round" stroke-linejoin="round"/>
<path d="M18.3335 36.5843C18.3335 36.5843 13.3335 29.9998 13.3335 19.9998C13.3335 9.99989 18.3335 3.41553 18.3335 3.41553" stroke="#6294F9" stroke-width="3" stroke-linecap="round" stroke-linejoin="round"/>
<path d="M4.38281 25.8333H20.0001" stroke="#6294F9" stroke-width="1.5" stroke-linecap="round" stroke-linejoin="round"/>
<path d="M4.38281 14.1667H35.6174" stroke="#6294F9" stroke-width="1.5" stroke-linecap="round" stroke-linejoin="round"/>
<path fill-rule="evenodd" clip-rule="evenodd" d="M36.4648 29.8623C37.2878 30.3684 37.2371 31.6006 36.3895 31.6968L32.1118 32.1816L30.1931 36.0354C29.813 36.7991 28.6378 36.4253 28.4435 35.4788L26.3513 25.2854C26.1871 24.4854 26.9061 23.9819 27.6016 24.4099L36.4648 29.8623Z" stroke="#6294F9" stroke-width="3"/>
</svg>
