<svg width="86" height="86" viewBox="0 0 86 86" fill="none" xmlns="http://www.w3.org/2000/svg">
<path d="M78.8333 34.0416V69.875C78.8333 72.2509 77.8895 74.5294 76.2095 76.2095C74.5295 77.8895 72.2509 78.8333 69.875 78.8333H16.125C15.9229 78.8357 15.7221 78.7992 15.5338 78.7258C17.2014 78.4425 18.715 77.5784 19.8069 76.2865C20.8988 74.9946 21.4985 73.3581 21.5 71.6666V34.0416C21.5043 32.6174 22.0719 31.2527 23.079 30.2456C24.0861 29.2385 25.4508 28.6709 26.875 28.6666H73.4583C74.8826 28.6709 76.2473 29.2385 77.2543 30.2456C78.2614 31.2527 78.8291 32.6174 78.8333 34.0416Z" fill="#2C64D6"/>
<path d="M59.1967 49.029L48.7889 42.9588C48.023 42.5118 47.1527 42.2747 46.2659 42.2716C45.3791 42.2685 44.5072 42.4995 43.7382 42.9411C42.9692 43.3828 42.3304 44.0195 41.8862 44.7871C41.442 45.5546 41.2082 46.4257 41.2083 47.3125V59.4547C41.2048 60.3428 41.4366 61.2159 41.88 61.9854C42.3234 62.7549 42.9627 63.3932 43.7328 63.8355C44.5029 64.2778 45.3764 64.5083 46.2645 64.5036C47.1526 64.4988 48.0236 64.259 48.7889 63.8084L59.1967 57.7365C59.9577 57.2927 60.5891 56.6571 61.028 55.8932C61.4668 55.1293 61.6977 54.2637 61.6977 53.3827C61.6977 52.5017 61.4668 51.6361 61.028 50.8722C60.5891 50.1083 59.9577 49.4728 59.1967 49.029Z" fill="white"/>
<path d="M66.2917 16.125H33.9718C33.703 16.1249 33.4376 16.0643 33.1954 15.9476C32.9531 15.831 32.7403 15.6614 32.5725 15.4513L27.5558 9.18048C27.0537 8.55037 26.4157 8.04193 25.6893 7.6932C24.963 7.34446 24.1672 7.16446 23.3615 7.16665H12.5417C11.1161 7.16665 9.74898 7.73294 8.74097 8.74095C7.73296 9.74895 7.16667 11.1161 7.16667 12.5416V69.875C7.16952 72.25 8.11425 74.5269 9.79365 76.2063C11.473 77.8857 13.75 78.8305 16.125 78.8333H69.875C70.3502 78.8333 70.8059 78.6445 71.1419 78.3085C71.4779 77.9725 71.6667 77.5168 71.6667 77.0416V21.5C71.6667 20.0744 71.1004 18.7073 70.0924 17.6993C69.0844 16.6913 67.7172 16.125 66.2917 16.125Z" fill="#6294F9"/>
</svg>
