<svg width="86" height="86" viewBox="0 0 86 86" fill="none" xmlns="http://www.w3.org/2000/svg">
<g clip-path="url(#clip0_970_2559)">
<path fill-rule="evenodd" clip-rule="evenodd" d="M57.5124 6.54764C57.3584 6.86526 57.1434 7.14945 56.8796 7.38397L50.0681 13.4376H64.5C74.8899 13.4376 83.3125 21.8602 83.3125 32.2501V61.8126C83.3125 71.2927 76.3008 79.1335 67.1808 80.4356C67.2068 80.8036 67.1568 81.173 67.0338 81.5208C66.9109 81.8686 66.7177 82.1873 66.4662 82.4572C66.2147 82.7271 65.9104 82.9423 65.5721 83.0895C65.2338 83.2366 64.8689 83.3126 64.5 83.3126H59.125C58.4122 83.3126 57.7287 83.0294 57.2247 82.5254C56.7206 82.0214 56.4375 81.3378 56.4375 80.6251H29.5625C29.5625 81.3378 29.2794 82.0214 28.7753 82.5254C28.2713 83.0294 27.5878 83.3126 26.875 83.3126H21.5C21.1311 83.3126 20.7662 83.2366 20.4279 83.0895C20.0896 82.9423 19.7853 82.7271 19.5338 82.4572C19.2823 82.1873 19.0891 81.8686 18.9662 81.5208C18.8432 81.173 18.7932 80.8036 18.8192 80.4356C9.69919 79.1335 2.6875 71.2927 2.6875 61.8126V32.2501C2.6875 21.8602 11.1101 13.4376 21.5 13.4376H35.9319L29.1204 7.38397C28.5876 6.91033 28.2648 6.24445 28.223 5.53279C28.1811 4.82114 28.4237 4.12202 28.8973 3.58922C29.371 3.05642 30.0369 2.7336 30.7485 2.69177C31.4602 2.64994 32.1593 2.89252 32.6921 3.36616L43 12.5305L53.3079 3.36616C53.5717 3.13164 53.8791 2.95138 54.2126 2.83566C54.5461 2.71995 54.8991 2.67106 55.2515 2.69177C55.6039 2.71248 55.9487 2.8024 56.2663 2.95638C56.584 3.11037 56.8681 3.32541 57.1027 3.58922C57.3372 3.85303 57.5174 4.16046 57.6332 4.49393C57.7489 4.82741 57.7978 5.18042 57.777 5.53279C57.7563 5.88517 57.6664 6.23001 57.5124 6.54764ZM54.1798 55.857C55.2882 56.5379 56.555 56.8784 57.98 56.8784C59.3893 56.8784 60.6481 56.5379 61.7565 55.857C62.8649 55.1762 63.7279 54.1865 64.3454 52.8881C64.9788 51.5739 65.2954 50.0221 65.2954 48.2329C65.2954 46.4436 64.9788 44.8998 64.3454 43.6014C63.7279 42.2871 62.8649 41.2896 61.7565 40.6087C60.6481 39.9278 59.3893 39.5874 57.98 39.5874C56.555 39.5874 55.2882 39.9278 54.1798 40.6087C53.0714 41.2896 52.2005 42.2871 51.5672 43.6014C50.9496 44.8998 50.6409 46.4436 50.6409 48.2329C50.6409 50.0221 50.9496 51.5739 51.5672 52.8881C52.2005 54.1865 53.0714 55.1762 54.1798 55.857ZM59.8564 51.8906C59.3972 52.6506 58.7717 53.0306 57.98 53.0306C57.1725 53.0306 56.5312 52.6506 56.0562 51.8906C55.597 51.1147 55.3674 49.8955 55.3674 48.2329C55.3674 46.5703 55.597 45.359 56.0562 44.5989C56.5312 43.823 57.1725 43.4351 57.98 43.4351C58.7717 43.4351 59.3972 43.823 59.8564 44.5989C60.3314 45.359 60.5689 46.5703 60.5689 48.2329C60.5689 49.8955 60.3314 51.1147 59.8564 51.8906ZM41.297 39.5874C43.688 39.5874 45.5723 40.292 46.9498 41.7012C48.3274 43.1105 49.0162 45.1373 49.0162 47.7816C49.0162 49.6817 48.6441 51.3205 47.8999 52.6981C47.1715 54.0599 46.1344 55.097 44.7885 55.8095C43.4584 56.5221 41.9146 56.8784 40.157 56.8784C39.2227 56.8784 38.3281 56.7675 37.4731 56.5458C36.618 56.34 35.8896 56.0471 35.2879 55.667L36.998 52.2943C37.8056 52.8644 38.8269 53.1494 40.062 53.1494C41.2495 53.1494 42.2075 52.8248 42.9359 52.1756C43.6801 51.5106 44.1155 50.5526 44.2422 49.3017C43.2921 50.1092 42.0492 50.513 40.5132 50.513C39.4682 50.513 38.5102 50.2992 37.6393 49.8717C36.7684 49.4284 36.0717 48.8108 35.5492 48.0191C35.0425 47.2116 34.7892 46.2932 34.7892 45.264C34.7892 44.1397 35.0742 43.1501 35.6442 42.295C36.2301 41.4241 37.0139 40.7591 37.9956 40.2999C38.9931 39.8249 40.0936 39.5874 41.297 39.5874ZM41.6296 47.1403C42.3104 47.1403 42.8646 46.9503 43.2921 46.5703C43.7197 46.1744 43.9334 45.6598 43.9334 45.0264C43.9334 44.4089 43.7197 43.9101 43.2921 43.5301C42.8805 43.1342 42.3183 42.9363 41.6058 42.9363C40.9408 42.9363 40.3945 43.1263 39.967 43.5064C39.5553 43.8864 39.3494 44.401 39.3494 45.0502C39.3494 45.6836 39.5553 46.1903 39.967 46.5703C40.3945 46.9503 40.9487 47.1403 41.6296 47.1403ZM32.591 48.2804C31.8627 47.4253 30.8097 46.8553 29.4321 46.5703L32.8761 42.8651V39.9199H20.8579V43.5539H27.4133L24.4443 46.7603V49.7292H26.4157C28.11 49.7292 28.9571 50.2676 28.9571 51.3443C28.9571 51.8985 28.7196 52.326 28.2446 52.6269C27.7695 52.9277 27.1282 53.0782 26.3207 53.0782C25.529 53.0782 24.7214 52.9594 23.8981 52.7219C23.0905 52.4844 22.3621 52.1439 21.7129 51.7006L20.0028 55.2395C20.842 55.7621 21.8317 56.1658 22.9718 56.4508C24.1277 56.7359 25.2915 56.8784 26.4632 56.8784C28.0625 56.8784 29.4004 56.625 30.4772 56.1183C31.5697 55.5958 32.3773 54.9149 32.8998 54.0757C33.4382 53.2365 33.7074 52.326 33.7074 51.3443C33.7074 50.1409 33.3353 49.1196 32.591 48.2804Z" fill="#6294F9"/>
</g>
<g clip-path="url(#clip1_970_2559)">
<path d="M56.9223 5.15191C57.1861 4.91739 57.4011 4.63321 57.5551 4.31558C57.7091 3.99796 57.799 3.65311 57.8197 3.30074C57.8404 2.94836 57.7915 2.59536 57.6758 2.26188C57.5601 1.9284 57.3798 1.62098 57.1453 1.35716C56.9108 1.09335 56.6266 0.878313 56.309 0.724328C55.9914 0.570343 55.6465 0.480427 55.2941 0.459714C54.9418 0.439001 54.5888 0.487896 54.2553 0.603607C53.9218 0.719319 53.6144 0.899581 53.3506 1.1341L43.0427 10.2985L32.7348 1.1341C32.202 0.660466 31.5028 0.417882 30.7912 0.459714C30.0795 0.501546 29.4136 0.824369 28.94 1.35716C28.4664 1.88996 28.2238 2.58908 28.2656 3.30074C28.3075 4.01239 28.6303 4.67828 29.1631 5.15191L35.9745 11.2055H21.5427C11.1528 11.2055 2.73016 19.6281 2.73016 30.018V59.5805C2.73016 69.0607 9.74185 76.9015 18.8619 78.2035C18.8359 78.5715 18.8859 78.9409 19.0088 79.2887C19.1318 79.6365 19.325 79.9552 19.5765 80.2251C19.828 80.495 20.1323 80.7102 20.4706 80.8574C20.8088 81.0046 21.1738 81.0805 21.5427 81.0805H26.9177C27.6304 81.0805 28.314 80.7974 28.818 80.2934C29.322 79.7894 29.6052 79.1058 29.6052 78.393H56.4802C56.4802 79.1058 56.7633 79.7894 57.2673 80.2934C57.7713 80.7974 58.4549 81.0805 59.1677 81.0805H64.5427C64.9116 81.0805 65.2765 81.0046 65.6148 80.8574C65.953 80.7102 66.2574 80.495 66.5088 80.2251C66.7603 79.9552 66.9536 79.6365 67.0765 79.2887C67.1994 78.9409 67.2495 78.5715 67.2234 78.2035C76.3435 76.9015 83.3552 69.0607 83.3552 59.5805V30.018C83.3552 19.6281 74.9325 11.2055 64.5427 11.2055H50.1108L56.9223 5.15191Z" fill="#2C64D6"/>
</g>
<defs>
<clipPath id="clip0_970_2559">
<rect width="80.5397" height="69.619" fill="white" transform="translate(2.73016 13.6509)"/>
</clipPath>
<clipPath id="clip1_970_2559">
<rect width="80.5397" height="10.4656" fill="white" transform="translate(2.73016 0.455078)"/>
</clipPath>
</defs>
</svg>
