<svg width="86" height="86" viewBox="0 0 86 86" fill="none" xmlns="http://www.w3.org/2000/svg">
<g clip-path="url(#clip0_970_2628)">
<path d="M35.492 43C47.3493 43 56.992 33.3573 56.992 21.5C56.992 9.64275 47.3493 0 35.492 0C23.6348 0 13.992 9.64275 13.992 21.5C13.992 33.3573 23.6348 43 35.492 43ZM37.2837 60.9167C37.2837 58.9494 37.4808 56.9535 37.875 54.9755C37.9912 54.3888 37.9588 53.7824 37.7807 53.2115C37.6026 52.6406 37.2844 52.1233 36.8551 51.7069C36.4258 51.2904 35.8992 50.988 35.3231 50.8273C34.747 50.6666 34.1399 50.6526 33.557 50.7866C18.3171 54.2839 6.82538 67.8827 6.82538 82.4167C6.82538 83.367 7.20291 84.2785 7.87491 84.9505C8.54692 85.6225 9.45835 86 10.4087 86H41.358C42.0364 86.0015 42.7013 85.8101 43.2752 85.4482C43.8491 85.0863 44.3083 84.5687 44.5993 83.9558C44.8903 83.343 45.0012 82.66 44.919 81.9866C44.8368 81.3131 44.5649 80.6769 44.135 80.152C39.7094 74.7176 37.29 67.9251 37.2837 60.9167Z" fill="#6294F9"/>
<path d="M62.7897 53.9846C68.3624 53.9846 72.4756 55.1138 75.1293 57.3722C77.8208 59.6306 79.1666 62.6418 79.1666 66.4058C79.1666 68.8524 78.5222 71.1108 77.2332 73.181C75.9822 75.2136 74.0488 76.8509 71.4331 78.0931C68.8552 79.2975 65.6518 79.8998 61.823 79.8998C59.0177 79.8998 56.2313 79.561 53.4639 78.8835C52.2548 78.5834 51.1201 78.2278 50.0597 77.8169C47.8921 76.9769 47.1718 74.4223 48.1776 72.3265C49.379 69.8234 52.5297 68.9989 55.1695 69.8596C55.3389 69.9148 55.5097 69.968 55.6816 70.0193C57.615 70.5839 59.5484 70.8662 61.4818 70.8662C63.4152 70.8662 64.9505 70.5086 66.0878 69.7934C67.263 69.0406 67.8506 68.0055 67.8506 66.6881C67.8506 65.3707 67.282 64.3733 66.1447 63.6957C65.0074 63.0182 62.9982 62.6795 60.117 62.6795H55.8522C52.3352 62.6795 49.5723 59.6683 49.8743 56.1642L50.8303 45.0721C51.0977 41.9696 53.6942 39.5873 56.8082 39.5873H72.3454C74.7308 39.5873 76.6646 41.521 76.6646 43.9065C76.6646 46.2919 74.7308 48.2257 72.3454 48.2257H63.2637C61.7722 48.2257 60.5276 49.3646 60.3956 50.8503L60.3536 51.3225C60.2265 52.753 61.3535 53.9846 62.7897 53.9846Z" fill="#2C64D6"/>
</g>
<defs>
<clipPath id="clip0_970_2628">
<rect width="86" height="86" fill="white"/>
</clipPath>
</defs>
</svg>
