<svg width="86" height="86" viewBox="0 0 86 86" fill="none" xmlns="http://www.w3.org/2000/svg">
<path d="M75.2501 43C75.2496 41.9645 75.2 40.9301 75.1016 39.9003C74.9407 38.2156 75.6918 36.5407 77.1578 35.6952L82.1511 32.8153C84.065 31.7116 84.7215 29.2652 83.6175 27.3514L76.867 15.6505C75.7624 13.736 73.3146 13.0802 71.4009 14.1861L66.4099 17.0702C64.9412 17.9188 63.1107 17.7284 61.7302 16.7429C60.0472 15.5415 58.2526 14.5048 56.3712 13.647C54.8291 12.944 53.7501 11.4553 53.7501 9.76051V4C53.7501 1.79086 51.9592 0 49.7501 0H36.2501C34.0409 0 32.2501 1.79086 32.2501 4V9.76052C32.2501 11.4553 31.1711 12.944 29.629 13.647C27.7476 14.5048 25.9529 15.5415 24.27 16.7429C22.8894 17.7284 21.0589 17.9188 19.5903 17.0702L14.5993 14.1861C12.6856 13.0802 10.2377 13.736 9.1332 15.6505L2.38267 27.3514C1.2786 29.2652 1.93514 31.7116 3.84902 32.8153L8.84141 35.6946C10.3079 36.5404 11.0588 38.2162 10.8979 39.9014C10.7012 41.9624 10.7012 44.0376 10.8979 46.0986C11.0588 47.7838 10.3079 49.4596 8.84141 50.3054L3.84902 53.1847C1.93514 54.2884 1.2786 56.7348 2.38267 58.6486L9.1337 70.3503C10.238 72.2645 12.6853 72.9205 14.5989 71.8153L19.5913 68.932C21.0595 68.0841 22.889 68.2744 24.2692 69.2591C25.9522 70.4599 27.7468 71.4961 29.6281 72.3533C31.1707 73.0561 32.2501 74.545 32.2501 76.2402V82C32.2501 84.2091 34.0409 86 36.2501 86H49.7501C51.9592 86 53.7501 84.2091 53.7501 82V76.2395C53.7501 74.5447 54.8291 73.056 56.3712 72.353C58.2526 71.4952 60.0472 70.4585 61.7302 69.2571C63.1107 68.2716 64.9412 68.0812 66.4099 68.9298L71.4009 71.8139C73.3146 72.9198 75.7624 72.264 76.867 70.3495L83.6175 58.6486C84.7215 56.7348 84.065 54.2884 82.1511 53.1847L77.1578 50.3048C75.6918 49.4593 74.9407 47.7844 75.1016 46.0997C75.2 45.0699 75.2496 44.0355 75.2501 43ZM53.7501 43C53.7501 45.1261 53.1196 47.2046 51.9384 48.9724C50.7571 50.7402 49.0782 52.1181 47.1139 52.9317C45.1496 53.7453 42.9882 53.9582 40.9029 53.5434C38.8176 53.1287 36.9021 52.1048 35.3987 50.6014C33.8953 49.098 32.8714 47.1825 32.4566 45.0972C32.0418 43.0119 32.2547 40.8505 33.0684 38.8862C33.882 36.9218 35.2599 35.2429 37.0277 34.0617C38.7955 32.8805 40.8739 32.25 43.0001 32.25C45.8512 32.25 48.5855 33.3826 50.6015 35.3986C52.6175 37.4146 53.7501 40.1489 53.7501 43Z" fill="#6294F9"/>
</svg>
