<svg width="86" height="86" viewBox="0 0 86 86" fill="none" xmlns="http://www.w3.org/2000/svg">
<g clip-path="url(#clip0_1004_1452)">
<path d="M21.9372 79.267C18.6871 82.5135 8.95832 84.513 4.92348 85.2297L-0.114685 86.1148L0.770398 81.0766C1.48348 77.0418 3.48657 67.313 6.73307 64.0629C8.74925 62.0467 11.4838 60.9141 14.3351 60.9141C15.7469 60.9141 17.1449 61.1921 18.4493 61.7324C19.7537 62.2727 20.9388 63.0646 21.9372 64.0629C22.9355 65.0612 23.7274 66.2464 24.2677 67.5508C24.8079 68.8551 25.086 70.2531 25.086 71.665C25.086 73.0768 24.8079 74.4748 24.2677 75.7792C23.7274 77.0835 22.9355 78.2687 21.9372 79.267Z" fill="#2C64D6"/>
<path d="M9.85779 53.75H3.83322e-05V50.1667C-0.0542073 45.1424 1.2764 40.2002 3.84589 35.8823C6.41538 31.5645 10.1245 28.0377 14.5663 25.6889C18.942 23.5314 23.681 22.2069 28.5413 21.7831C26.4176 24.4109 24.2879 27.2035 22.1522 30.1609C17.342 37.6318 13.2266 45.5279 9.85779 53.75ZM55.8391 63.8299C48.3689 68.6463 40.4728 72.7677 32.25 76.1423V86H35.8334C40.8577 86.0543 45.7998 84.7236 50.1177 82.1542C54.4356 79.5847 57.9624 75.8756 60.3111 71.4338C62.4686 67.058 63.7931 62.319 64.217 57.4588C61.6011 59.5729 58.8085 61.6966 55.8391 63.8299ZM86 10.7178C85.5235 26.316 74.2933 41.7853 51.6645 58.0178C45.5066 62.0097 39.0102 65.4533 32.25 68.3091V66.2917C32.234 62.9704 30.9075 59.7896 28.559 57.4411C26.2104 55.0925 23.0297 53.766 19.7084 53.75H17.691C20.5501 46.9899 23.9986 40.4945 27.9966 34.3391C44.1897 11.7462 59.6339 0.516 75.207 0C82.9685 0 86 3.17125 86 10.7178ZM64.5 30.4583C64.5 28.0824 63.5562 25.8039 61.8762 24.1238C60.1962 22.4438 57.9176 21.5 55.5417 21.5C53.1658 21.5 50.8872 22.4438 49.2072 24.1238C47.5272 25.8039 46.5834 28.0824 46.5834 30.4583C46.5834 32.8342 47.5272 35.1128 49.2072 36.7928C50.8872 38.4728 53.1658 39.4167 55.5417 39.4167C57.9176 39.4167 60.1962 38.4728 61.8762 36.7928C63.5562 35.1128 64.5 32.8342 64.5 30.4583Z" fill="#6294F9"/>
</g>
<defs>
<clipPath id="clip0_1004_1452">
<rect width="86" height="86" fill="white"/>
</clipPath>
</defs>
</svg>
