<svg width="16" height="16" viewBox="0 0 16 16" fill="none" xmlns="http://www.w3.org/2000/svg">
<path fill-rule="evenodd" clip-rule="evenodd" d="M7.99984 14.6667C7.99984 14.6667 13.3332 9.61224 13.3332 6.66671C13.3332 3.72119 10.9454 1.33337 7.99984 1.33337C5.05432 1.33337 2.6665 3.72119 2.6665 6.66671C2.6665 9.61224 7.99984 14.6667 7.99984 14.6667ZM10.9998 6.00003C10.9998 7.65693 9.65675 9.00003 7.99985 9.00003C6.34295 9.00003 4.99985 7.65693 4.99985 6.00003C4.99985 4.34319 6.34295 3.00003 7.99985 3.00003C9.65675 3.00003 10.9998 4.34319 10.9998 6.00003Z" fill="#6294F9"/>
<path d="M7.99984 14.6667L7.48393 15.2111L7.99984 15.7L8.51574 15.2111L7.99984 14.6667ZM12.5832 6.66671C12.5832 7.20582 12.3283 7.93533 11.8463 8.7914C11.3756 9.62737 10.7382 10.4982 10.0857 11.2967C9.43553 12.0925 8.78331 12.8008 8.29261 13.311C8.04766 13.5657 7.84394 13.77 7.70211 13.91C7.63122 13.98 7.57586 14.0339 7.53862 14.0698C7.52 14.0878 7.50592 14.1013 7.49669 14.1102C7.49208 14.1146 7.48868 14.1178 7.48654 14.1199C7.48547 14.1209 7.48472 14.1216 7.48428 14.122C7.48406 14.1222 7.48392 14.1223 7.48386 14.1224C7.48383 14.1224 7.48385 14.1224 7.48384 14.1224C7.48387 14.1224 7.48393 14.1223 7.99984 14.6667C8.51574 15.2111 8.51584 15.211 8.51596 15.2109C8.51603 15.2108 8.51617 15.2107 8.5163 15.2106C8.51656 15.2103 8.51691 15.21 8.51734 15.2096C8.51819 15.2088 8.51937 15.2076 8.52086 15.2062C8.52385 15.2034 8.5281 15.1993 8.53358 15.1941C8.54454 15.1836 8.5604 15.1684 8.58085 15.1486C8.62173 15.1091 8.68095 15.0515 8.7559 14.9775C8.90574 14.8296 9.11868 14.616 9.37374 14.3508C9.88303 13.8213 10.5641 13.0819 11.2473 12.2458C11.9281 11.4126 12.624 10.4675 13.1534 9.52731C13.6714 8.60724 14.0832 7.60036 14.0832 6.66671H12.5832ZM7.99984 2.08337C10.5312 2.08337 12.5832 4.1354 12.5832 6.66671H14.0832C14.0832 3.30698 11.3596 0.583374 7.99984 0.583374V2.08337ZM3.4165 6.66671C3.4165 4.1354 5.46853 2.08337 7.99984 2.08337V0.583374C4.6401 0.583374 1.9165 3.30697 1.9165 6.66671H3.4165ZM7.99984 14.6667C8.51574 14.1223 8.5158 14.1224 8.51584 14.1224C8.51582 14.1224 8.51584 14.1224 8.51581 14.1224C8.51575 14.1223 8.51561 14.1222 8.5154 14.122C8.51496 14.1216 8.5142 14.1209 8.51313 14.1199C8.51099 14.1178 8.50759 14.1146 8.50298 14.1102C8.49376 14.1013 8.47967 14.0878 8.46106 14.0698C8.42382 14.0339 8.36845 13.98 8.29756 13.91C8.15574 13.77 7.95202 13.5657 7.70707 13.311C7.21637 12.8008 6.56415 12.0925 5.91395 11.2967C5.26144 10.4982 4.62404 9.62737 4.15337 8.7914C3.67139 7.93533 3.4165 7.20582 3.4165 6.66671H1.9165C1.9165 7.60036 2.32828 8.60724 2.8463 9.52731C3.37563 10.4675 4.07157 11.4126 4.75239 12.2458C5.43553 13.0819 6.11664 13.8213 6.62594 14.3508C6.88099 14.616 7.09394 14.8296 7.24378 14.9775C7.31872 15.0515 7.37794 15.1091 7.41883 15.1486C7.43927 15.1684 7.45513 15.1836 7.46609 15.1941C7.47157 15.1993 7.47583 15.2034 7.47881 15.2062C7.4803 15.2076 7.48148 15.2088 7.48234 15.2096C7.48276 15.21 7.48311 15.2103 7.48338 15.2106C7.48351 15.2107 7.48365 15.2108 7.48371 15.2109C7.48383 15.211 7.48393 15.2111 7.99984 14.6667ZM7.99985 9.75003C10.071 9.75003 11.7498 8.07114 11.7498 6.00003H10.2498C10.2498 7.24272 9.24253 8.25003 7.99985 8.25003V9.75003ZM4.24985 6.00003C4.24985 8.07114 5.92873 9.75003 7.99985 9.75003V8.25003C6.75716 8.25003 5.74985 7.24272 5.74985 6.00003H4.24985ZM7.99985 2.25003C5.92872 2.25003 4.24985 3.92899 4.24985 6.00003H5.74985C5.74985 4.75739 6.75717 3.75003 7.99985 3.75003V2.25003ZM11.7498 6.00003C11.7498 3.92899 10.071 2.25003 7.99985 2.25003V3.75003C9.24252 3.75003 10.2498 4.75739 10.2498 6.00003H11.7498Z" fill="#6294F9"/>
</svg>
