<svg width="16" height="16" viewBox="0 0 16 16" fill="none" xmlns="http://www.w3.org/2000/svg">
<g clip-path="url(#clip0_432_9491)">
<path d="M4 5.66663V7.99996M4 7.99996V10.3333M4 7.99996H7M7 7.99996V5.66663M7 7.99996V10.3333" stroke="#2C64D6" stroke-width="1.5" stroke-linecap="round" stroke-linejoin="round"/>
<path d="M9.33333 7.99996V5.66663C11 5.66663 12.6667 5.66663 12.6667 7.99996C12.6667 10.3333 11 10.3333 9.33333 10.3333V7.99996Z" stroke="#2C64D6" stroke-width="1.5" stroke-linecap="round" stroke-linejoin="round"/>
<path d="M0.666672 10V6C0.666672 3.79086 2.45753 2 4.66667 2H11.3333C13.5425 2 15.3333 3.79086 15.3333 6V10C15.3333 12.2091 13.5425 14 11.3333 14H4.66667C2.45753 14 0.666672 12.2091 0.666672 10Z" stroke="#2C64D6" stroke-width="1.5"/>
</g>
<defs>
<clipPath id="clip0_432_9491">
<rect width="16" height="16" fill="white"/>
</clipPath>
</defs>
</svg>
