<svg width="86" height="86" viewBox="0 0 86 86" fill="none" xmlns="http://www.w3.org/2000/svg">
<g clip-path="url(#clip0_1004_849)">
<path d="M81.6032 27.6669C79.923 25.7305 77.8462 24.1777 75.5137 23.1137C73.1811 22.0498 70.6471 21.4994 68.0833 21.5H53.7894L54.9934 14.1864C55.4194 11.6109 54.9055 8.9681 53.5453 6.74C52.1851 4.5119 50.0693 2.84697 47.5838 2.04889C45.0983 1.25081 42.4087 1.37275 40.0057 2.39247C37.6026 3.4122 35.6462 5.26176 34.4932 7.6038L28.6667 19.4109V75.25H65.575C69.8874 75.2323 74.0502 73.6672 77.3061 70.8395C80.562 68.0117 82.6947 64.1091 83.3161 59.8416L85.8423 41.925C86.1995 39.3834 86.0058 36.7947 85.2744 34.3346C84.543 31.8745 83.291 29.6005 81.6032 27.6669Z" fill="#6294F9"/>
<path d="M0 57.3333V39.4167C0.00568982 34.6666 1.89516 30.1127 5.25395 26.754C8.61275 23.3952 13.1666 21.5057 17.9167 21.5H21.5V75.25H17.9167C13.1666 75.2443 8.61275 73.3548 5.25395 69.996C1.89516 66.6373 0.00568982 62.0834 0 57.3333Z" fill="#2C64D6"/>
</g>
<defs>
<clipPath id="clip0_1004_849">
<rect width="86" height="86" fill="white"/>
</clipPath>
</defs>
</svg>
