<svg width="16" height="16" viewBox="0 0 16 16" fill="none" xmlns="http://www.w3.org/2000/svg">
<g clip-path="url(#clip0_365_45920)">
<path d="M15.9333 7.62471C15.6714 5.60832 14.6515 3.76733 13.0809 2.47593C11.5103 1.18454 9.50693 0.539647 7.47793 0.672338C5.44893 0.80503 3.5466 1.70535 2.15758 3.19029C0.76856 4.67524 -0.00289927 6.63338 3.59296e-06 8.66671C-0.00383934 9.75505 0.216709 10.8325 0.64788 11.8318C1.07905 12.8311 1.71159 13.7308 2.506 14.4747C3.11356 15.0372 3.91411 15.3446 4.742 15.3334H11.2533C12.128 15.3354 12.9683 14.9932 13.5927 14.3807C14.4825 13.515 15.1575 12.4532 15.5639 11.2802C15.9704 10.1072 16.0969 8.85534 15.9333 7.62471ZM4.98134 13.1074C4.92349 13.1732 4.85325 13.2269 4.77462 13.2655C4.69599 13.3041 4.61053 13.3269 4.5231 13.3325C4.43568 13.338 4.34802 13.3263 4.26513 13.298C4.18223 13.2697 4.10573 13.2253 4.04 13.1674C3.12373 12.3629 2.47452 11.2982 2.17896 10.1153C1.88341 8.93233 1.95557 7.68739 2.38582 6.54652C2.81606 5.40565 3.58394 4.42308 4.58702 3.72987C5.5901 3.03667 6.7807 2.66579 8 2.66671C8.50569 2.66686 9.00938 2.73024 9.49934 2.85537C9.58417 2.87726 9.66386 2.91564 9.73386 2.96833C9.80386 3.02101 9.8628 3.08697 9.90731 3.16243C9.95182 3.2379 9.98103 3.32139 9.99328 3.40814C10.0055 3.49489 10.0006 3.58321 9.97867 3.66804C9.95678 3.75287 9.9184 3.83257 9.86572 3.90257C9.81303 3.97257 9.74707 4.03151 9.67161 4.07602C9.59615 4.12053 9.51266 4.14974 9.4259 4.16198C9.33915 4.17422 9.25084 4.16926 9.166 4.14737C8.15034 3.88412 7.07557 3.97113 6.11548 4.39433C5.15539 4.81753 4.3661 5.55218 3.87522 6.4795C3.38435 7.40681 3.22059 8.47259 3.41042 9.5045C3.60026 10.5364 4.13259 11.4741 4.92134 12.166C4.98712 12.2239 5.04086 12.2941 5.07948 12.3728C5.1181 12.4514 5.14085 12.5368 5.14642 12.6243C5.15199 12.7117 5.14028 12.7994 5.11196 12.8823C5.08363 12.9651 5.03924 13.0416 4.98134 13.1074ZM8 10C7.80888 10.0026 7.61945 9.96396 7.44455 9.88686C7.26966 9.80975 7.11338 9.69594 6.98632 9.55315C6.85927 9.41036 6.76439 9.24191 6.70814 9.05924C6.65188 8.87657 6.63556 8.68393 6.66028 8.4944C6.685 8.30487 6.75018 8.12286 6.8514 7.96072C6.95262 7.79859 7.08752 7.66011 7.24695 7.55468C7.40638 7.44925 7.58662 7.37932 7.77544 7.34965C7.96426 7.31998 8.15725 7.33125 8.34134 7.38271L10.862 4.86204C10.9235 4.79837 10.9971 4.74758 11.0784 4.71264C11.1597 4.6777 11.2472 4.65931 11.3357 4.65854C11.4243 4.65777 11.512 4.67464 11.594 4.70816C11.6759 4.74168 11.7503 4.79118 11.8129 4.85378C11.8755 4.91637 11.925 4.99081 11.9586 5.07274C11.9921 5.15467 12.0089 5.24246 12.0082 5.33097C12.0074 5.41949 11.989 5.50697 11.9541 5.58831C11.9191 5.66965 11.8683 5.74321 11.8047 5.80471L9.284 8.32537C9.33959 8.52255 9.34842 8.72998 9.3098 8.93117C9.27117 9.13236 9.18616 9.32177 9.06151 9.48435C8.93685 9.64692 8.776 9.77819 8.59173 9.86771C8.40746 9.95723 8.20485 10.0025 8 10ZM11.96 13.1674C11.8267 13.2793 11.6549 13.3346 11.4814 13.3216C11.3079 13.3085 11.1463 13.2281 11.0312 13.0976C10.9162 12.967 10.8567 12.7966 10.8656 12.6228C10.8744 12.449 10.9509 12.2856 11.0787 12.1674C11.7269 11.5989 12.2048 10.8617 12.4591 10.0378C12.7135 9.21397 12.7343 8.33571 12.5193 7.50071C12.4751 7.32938 12.5008 7.1475 12.5907 6.9951C12.6806 6.8427 12.8273 6.73224 12.9987 6.68804C13.17 6.64384 13.3519 6.66951 13.5043 6.7594C13.6567 6.84929 13.7671 6.99604 13.8113 7.16737C13.9365 7.65733 13.9999 8.16102 14 8.66671C13.999 9.51873 13.8166 10.3608 13.4648 11.1368C13.1131 11.9128 12.6001 12.605 11.96 13.1674Z" fill="#2C64D6"/>
</g>
<defs>
<clipPath id="clip0_365_45920">
<rect width="16" height="16" fill="white"/>
</clipPath>
</defs>
</svg>
