<svg width="162" height="20" viewBox="0 0 162 20" fill="none" xmlns="http://www.w3.org/2000/svg">
<g clip-path="url(#clip0_933_2829)">
<path d="M44.7167 0.395256L51.385 10.4348L58.0533 0.395256H61.7012V19.4862H57.5433V7.47036L52.7186 14.7431H50.0513L45.2266 7.47036V19.4466H41.0688V0.395256H44.7167Z" fill="#6294F9"/>
<path d="M64.3685 19.4862V0.395256H68.5264V13.1225L78.1758 0.395256H81.9022V19.4862H77.7443V6.75889L68.0949 19.4862H64.3685Z" fill="#6294F9"/>
<path d="M84.5303 0.395256H101.632V19.4862H97.4746V4.11067H88.7274V19.4466H84.5695V0.395256H84.5303Z" fill="#6294F9"/>
<path d="M103.437 19.5257L103.986 15.9684C104.339 16.0079 104.574 16.0474 105.006 16.0474C106.418 16.0474 107.281 15.2964 107.281 12.4901V0.395256H122.696V19.4862H118.538V4.11067H111.439V13.1621C111.439 17.747 108.811 19.7628 105.751 19.7628C104.731 19.7628 104.025 19.6443 103.437 19.5257Z" fill="#6294F9"/>
<path d="M151.88 4.11067H146.192V0.395256H162V4.1502H156.038V19.4862H151.88V4.11067Z" fill="#6294F9"/>
<path d="M124.187 9.92095C124.187 4.38735 128.502 0 134.111 0C139.72 0 144.035 4.38735 144.035 9.92095C144.035 15.4545 139.72 19.8419 134.111 19.8419C128.502 19.8419 124.187 15.4545 124.187 9.92095ZM139.799 9.92095C139.799 6.52174 137.445 3.87352 134.111 3.87352C130.738 3.87352 128.384 6.52174 128.384 9.92095C128.384 13.3202 130.738 15.9684 134.111 15.9684C137.445 15.9684 139.799 13.3202 139.799 9.92095Z" fill="#6294F9"/>
<path d="M144.623 0.355732H140.073V19.6443H144.623V0.355732Z" fill="#6294F9"/>
<path d="M0 10.0791C0 4.54546 4.31477 0.158104 9.92397 0.158104C15.5332 0.158104 19.8479 4.54546 19.8479 10.0791C19.8479 15.6127 15.5332 20 9.92397 20C4.31477 20 0 15.6127 0 10.0791ZM15.6116 10.0791C15.6116 6.67984 13.2581 4.03162 9.92397 4.03162C6.5506 4.03162 4.19709 6.67984 4.19709 10.0791C4.19709 13.4783 6.5506 16.1265 9.92397 16.1265C13.2581 16.087 15.6116 13.4783 15.6116 10.0791Z" fill="#BDD9F9"/>
<path d="M9.92397 10.0791C9.92397 4.54546 14.2387 0.158104 19.8479 0.158104C25.4571 0.158104 29.8111 4.50593 29.8111 10.0791C29.8111 15.6127 25.4964 20 19.8872 20C14.278 20 9.92397 15.6127 9.92397 10.0791ZM25.5748 10.0791C25.5748 6.67984 23.2213 4.03162 19.8872 4.03162C16.5138 4.03162 14.1603 6.67984 14.1603 10.0791C14.1603 13.4783 16.5138 16.1265 19.8872 16.1265C23.2213 16.087 25.5748 13.4783 25.5748 10.0791Z" fill="#9CC1F7"/>
<path d="M11.7283 4.3083C12.1598 4.4664 12.8659 4.74308 13.5719 5.33597C14.278 5.92885 14.7094 6.60079 14.9056 6.99605C15.1017 6.60079 15.494 5.96838 16.1608 5.37549C16.9061 4.74308 17.6513 4.42688 18.0828 4.3083C17.7298 3.83399 17.2591 3.24111 16.6315 2.64822C16.0039 2.09486 15.4155 1.6996 14.9056 1.42292C14.4349 1.6996 13.8465 2.09486 13.2581 2.60869C12.5521 3.20158 12.0814 3.79447 11.7283 4.3083Z" fill="#84B5EF"/>
<path d="M19.8479 10C19.8479 4.4664 24.1627 0.079052 29.7719 0.079052C35.3811 0.079052 39.6959 4.4664 39.6959 10C39.6959 15.5336 35.3811 19.9209 29.7719 19.9209C24.1627 19.9209 19.8479 15.5336 19.8479 10ZM35.4596 10C35.4596 6.60079 33.1061 3.95257 29.7719 3.95257C26.3986 3.95257 24.045 6.60079 24.045 10C24.045 13.3992 26.3986 16.0474 29.7719 16.0474C33.1061 16.0079 35.4596 13.3992 35.4596 10Z" fill="#6294F9"/>
<path d="M18.0828 15.8103C17.6513 15.6522 16.9453 15.3755 16.2392 14.7826C15.5332 14.1897 15.1017 13.5178 14.8663 13.1225C14.6702 13.5178 14.278 14.1502 13.6111 14.7431C12.8659 15.3755 12.1206 15.6917 11.6891 15.8103C12.0421 16.2846 12.5128 16.8775 13.1404 17.4704C13.768 18.0237 14.3564 18.419 14.8663 18.6957C15.337 18.419 15.9254 18.0237 16.5138 17.5099C17.2199 16.917 17.7298 16.3241 18.0828 15.8103Z" fill="#84B5EF"/>
</g>
<defs>
<clipPath id="clip0_933_2829">
<rect width="162" height="20" fill="white"/>
</clipPath>
</defs>
</svg>
