<svg width="20" height="30" viewBox="0 0 20 30" fill="none" xmlns="http://www.w3.org/2000/svg">
<path d="M18.602 18.45C19.3077 17.75 19.4085 16.75 18.8036 15.75C18.2996 14.95 17.3924 14.55 16.3844 14.75C15.9812 14.85 15.5779 15.05 15.1747 15.35C12.0498 17.45 7.81607 17.35 4.69116 15.25C4.48956 15.15 4.28794 15.05 4.08634 14.95C2.9775 14.45 1.86867 14.65 1.26385 15.65C0.558228 16.65 0.659019 17.75 1.56625 18.65C1.76786 18.85 1.96946 18.95 2.07027 19.15L2.17108 19.25C3.58232 20.35 5.29599 21.05 7.51366 21.35L6.20321 22.65C5.09438 23.75 3.88474 24.95 2.7759 26.05C2.47349 26.35 2.07027 26.85 2.07027 27.55C2.07027 28.45 2.57429 29.35 3.48152 29.75C3.78394 29.95 4.08634 29.95 4.38875 29.95C4.89277 29.95 5.49759 29.75 5.9008 29.25C7.41285 27.75 8.6225 26.55 9.83214 25.35C9.93295 25.25 9.93294 25.25 9.93294 25.25C9.93294 25.25 10.0337 25.25 10.0337 25.35C10.8402 26.25 11.7474 27.05 12.5538 27.95C12.957 28.35 13.3603 28.75 13.7635 29.15C14.2675 29.65 14.6707 29.85 15.2755 29.85C16.1828 29.95 17.1908 29.35 17.594 28.45C17.9972 27.65 17.7956 26.65 17.09 26.05C16.082 25.05 15.0739 23.95 13.9651 22.95L12.2514 21.25C13.1587 21.15 14.1667 20.95 15.0739 20.55C16.586 20.05 17.6948 19.35 18.602 18.45Z" fill="#6294F9"/>
<path d="M9.93294 15.65C14.2675 15.65 17.7956 12.25 17.7956 7.94998C17.7956 5.84998 16.9892 3.84999 15.4771 2.34999C13.9651 0.849991 12.0498 0.0499878 10.0337 0.0499878C5.6992 0.0499878 2.27188 3.54998 2.17108 7.74998C2.17108 9.84998 2.97751 11.75 4.48956 13.25C5.90081 14.85 7.81607 15.65 9.93294 15.65ZM7.71526 5.64999C8.32009 5.04999 9.12651 4.74998 9.93294 4.74998C11.7474 4.74998 13.0579 6.14999 13.0579 7.84999C13.0579 9.64999 11.6466 10.95 9.93294 10.95C8.11848 10.95 6.80804 9.54999 6.80804 7.84999C6.80804 7.04999 7.11044 6.24999 7.71526 5.64999Z" fill="#6294F9"/>
<path d="M18.602 18.45C19.3077 17.75 19.4085 16.75 18.8036 15.75C18.2996 14.95 17.3924 14.55 16.3844 14.75C15.9812 14.85 15.5779 15.05 15.1747 15.35C12.0498 17.45 7.81607 17.35 4.69116 15.25C4.48956 15.15 4.28794 15.05 4.08634 14.95C2.9775 14.45 1.86867 14.65 1.26385 15.65C0.558228 16.65 0.659019 17.75 1.56625 18.65C1.76786 18.85 1.96946 18.95 2.07027 19.15L2.17108 19.25C3.58232 20.35 5.29599 21.05 7.51366 21.35L6.20321 22.65C5.09438 23.75 3.88474 24.95 2.7759 26.05C2.47349 26.35 2.07027 26.85 2.07027 27.55C2.07027 28.45 2.57429 29.35 3.48152 29.75C3.78394 29.95 4.08634 29.95 4.38875 29.95C4.89277 29.95 5.49759 29.75 5.9008 29.25C7.41285 27.75 8.6225 26.55 9.83214 25.35C9.93295 25.25 9.93294 25.25 9.93294 25.25C9.93294 25.25 10.0337 25.25 10.0337 25.35C10.8402 26.25 11.7474 27.05 12.5538 27.95C12.957 28.35 13.3603 28.75 13.7635 29.15C14.2675 29.65 14.6707 29.85 15.2755 29.85C16.1828 29.95 17.1908 29.35 17.594 28.45C17.9972 27.65 17.7956 26.65 17.09 26.05C16.082 25.05 15.0739 23.95 13.9651 22.95L12.2514 21.25C13.1587 21.15 14.1667 20.95 15.0739 20.55C16.586 20.05 17.6948 19.35 18.602 18.45Z" fill="#6294F9"/>
</svg>
