<svg width="10" height="16" viewBox="0 0 10 16" fill="none" xmlns="http://www.w3.org/2000/svg">
<path d="M9.48781 9.79995C9.85596 9.43474 9.90855 8.913 9.59299 8.39126C9.33003 7.97387 8.85669 7.76517 8.33076 7.86952C8.12039 7.92169 7.91001 8.02604 7.69964 8.18257C6.06925 9.27822 3.86035 9.22604 2.22996 8.13039C2.12477 8.07822 2.01958 8.02604 1.9144 7.97387C1.33587 7.713 0.757356 7.81735 0.441797 8.33909C0.0736458 8.86083 0.126232 9.43474 0.59957 9.90431C0.704757 10.0087 0.809943 10.0608 0.862536 10.1652L0.915132 10.2173C1.65144 10.7913 2.54552 11.1565 3.70257 11.313L3.01886 11.9913C2.44033 12.5652 1.80922 13.1913 1.23069 13.7652C1.07291 13.9217 0.862536 14.1826 0.862536 14.5478C0.862536 15.0173 1.12551 15.4869 1.59884 15.6956C1.75662 15.8 1.9144 15.8 2.07218 15.8C2.33514 15.8 2.6507 15.6956 2.86108 15.4347C3.64997 14.6521 4.28109 14.026 4.91221 13.4C4.9648 13.3478 4.9648 13.3478 4.9648 13.3478C4.9648 13.3478 5.0174 13.3478 5.0174 13.4C5.43814 13.8695 5.91148 14.2869 6.33222 14.7565C6.5426 14.9652 6.75297 15.1739 6.96334 15.3826C7.2263 15.6434 7.43668 15.7478 7.75223 15.7478C8.22557 15.8 8.7515 15.4869 8.96188 15.0173C9.17225 14.6 9.06706 14.0782 8.69891 13.7652C8.17298 13.2434 7.64705 12.6695 7.06852 12.1478L6.17444 11.2608C6.64778 11.2086 7.17371 11.1043 7.64705 10.8956C8.43595 10.6347 9.01447 10.2695 9.48781 9.79995Z" fill="#212121"/>
<path d="M4.9648 8.33908C7.2263 8.33908 9.06706 6.56516 9.06706 4.32169C9.06706 3.22603 8.64632 2.18256 7.85742 1.39995C7.06852 0.617344 6.06926 0.199951 5.01739 0.199951C2.75589 0.199951 0.967725 2.02604 0.915132 4.21734C0.915132 5.31299 1.33588 6.3043 2.12477 7.0869C2.86108 7.92169 3.86034 8.33908 4.9648 8.33908ZM3.80775 3.12169C4.12331 2.80865 4.54405 2.65212 4.9648 2.65212C5.91147 2.65212 6.59519 3.38256 6.59519 4.26952C6.59519 5.20865 5.85888 5.8869 4.9648 5.8869C4.01812 5.8869 3.33442 5.15647 3.33442 4.26952C3.33442 3.85213 3.49219 3.43474 3.80775 3.12169Z" fill="#212121"/>
<path d="M9.48781 9.79995C9.85596 9.43474 9.90855 8.913 9.59299 8.39126C9.33003 7.97387 8.85669 7.76517 8.33076 7.86952C8.12039 7.92169 7.91001 8.02604 7.69964 8.18257C6.06925 9.27822 3.86035 9.22604 2.22996 8.13039C2.12477 8.07822 2.01958 8.02604 1.9144 7.97387C1.33587 7.713 0.757356 7.81735 0.441797 8.33909C0.0736458 8.86083 0.126232 9.43474 0.59957 9.90431C0.704757 10.0087 0.809943 10.0608 0.862536 10.1652L0.915132 10.2173C1.65144 10.7913 2.54552 11.1565 3.70257 11.313L3.01886 11.9913C2.44033 12.5652 1.80922 13.1913 1.23069 13.7652C1.07291 13.9217 0.862536 14.1826 0.862536 14.5478C0.862536 15.0173 1.12551 15.4869 1.59884 15.6956C1.75662 15.8 1.9144 15.8 2.07218 15.8C2.33514 15.8 2.6507 15.6956 2.86108 15.4347C3.64997 14.6521 4.28109 14.026 4.91221 13.4C4.9648 13.3478 4.9648 13.3478 4.9648 13.3478C4.9648 13.3478 5.0174 13.3478 5.0174 13.4C5.43814 13.8695 5.91148 14.2869 6.33222 14.7565C6.5426 14.9652 6.75297 15.1739 6.96334 15.3826C7.2263 15.6434 7.43668 15.7478 7.75223 15.7478C8.22557 15.8 8.7515 15.4869 8.96188 15.0173C9.17225 14.6 9.06706 14.0782 8.69891 13.7652C8.17298 13.2434 7.64705 12.6695 7.06852 12.1478L6.17444 11.2608C6.64778 11.2086 7.17371 11.1043 7.64705 10.8956C8.43595 10.6347 9.01447 10.2695 9.48781 9.79995Z" fill="#212121"/>
</svg>
