<svg width="18" height="16" viewBox="0 0 18 16" fill="none" xmlns="http://www.w3.org/2000/svg">
<path d="M0.894687 7.39983L4.75709 8.87396L6.26276 13.8324C6.32822 14.1674 6.72101 14.2344 6.98287 14.0334L9.14318 12.2243C9.33957 12.0232 9.6669 12.0232 9.92876 12.2243L13.7911 15.1055C14.053 15.3065 14.4458 15.1725 14.5113 14.8375L17.3917 0.766251C17.4571 0.431222 17.1298 0.0961957 16.8025 0.230207L0.894687 6.52876C0.501901 6.66277 0.501901 7.26582 0.894687 7.39983ZM6.06637 8.13689L13.6602 3.37948C13.7911 3.31247 13.9221 3.51349 13.7911 3.5805L7.57204 9.54402C7.37565 9.74504 7.17925 10.0131 7.17925 10.3481L6.98287 11.9562C6.98287 12.1572 6.65554 12.2243 6.59008 11.9562L5.8045 9.00797C5.60811 8.67294 5.73905 8.27091 6.06637 8.13689Z" fill="#212121"/>
</svg>
