<svg width="34" height="29" viewBox="0 0 34 29" fill="none" xmlns="http://www.w3.org/2000/svg">
<path d="M1.46502 13.8498L8.86796 16.6752L11.7538 26.1788C11.8793 26.821 12.6321 26.9494 13.134 26.5641L17.2746 23.0966C17.651 22.7113 18.2784 22.7113 18.7803 23.0966L26.1832 28.619C26.6851 29.0042 27.438 28.7474 27.5634 28.1053L33.0842 1.1354C33.2097 0.493257 32.5824 -0.148877 31.955 0.107979L1.46502 12.1802C0.712181 12.4371 0.712181 13.5929 1.46502 13.8498ZM11.3774 15.2625L25.9323 6.14409C26.1832 6.01566 26.4342 6.40095 26.1832 6.52937L14.2633 17.9595C13.8869 18.3447 13.5104 18.8584 13.5104 19.5006L13.134 22.5829C13.134 22.9681 12.5067 23.0966 12.3812 22.5829L10.8755 16.932C10.4991 16.2899 10.7501 15.5193 11.3774 15.2625Z" fill="#6294F9"/>
</svg>
