<svg width="18" height="12" viewBox="0 0 18 12" fill="none" xmlns="http://www.w3.org/2000/svg">
<path d="M17.8328 10.7671C17.8328 10.6849 17.7612 10.6849 17.7612 10.6027C17.4747 9.94521 16.8302 9.12329 15.9707 8.21918C15.541 7.80822 15.3262 7.47945 15.1829 7.31507C14.9681 6.9863 14.9681 6.73973 15.0397 6.41096C15.1113 6.16439 15.3978 5.75342 15.8991 5.01369C16.1856 4.60274 16.3288 4.35617 16.5437 4.10959C17.6179 2.46575 18.1193 1.39725 17.976 0.904103L17.9044 0.821918C17.8328 0.739726 17.7612 0.657537 17.6179 0.657537C17.4747 0.575345 17.2599 0.575345 17.045 0.657537H14.3235C14.2519 0.657537 14.2519 0.657537 14.1087 0.657537C14.0371 0.657537 13.9655 0.657537 13.9655 0.657537H13.8938H13.8222L13.7506 0.739721C13.679 0.821913 13.679 0.821911 13.679 0.904103C13.3925 1.80821 13.0344 2.54794 12.6763 3.36986C12.4615 3.78082 12.2466 4.19178 12.0318 4.52055C11.8169 4.84932 11.6737 5.09589 11.5304 5.26027C11.3872 5.42466 11.244 5.50685 11.1723 5.67123C11.1007 5.75342 10.9575 5.83562 10.9575 5.75343C10.8859 5.75343 10.8143 5.75342 10.8143 5.67123C10.7426 5.58904 10.671 5.50684 10.5994 5.42465C10.5278 5.34246 10.5278 5.17808 10.4562 5.01369C10.4562 4.84931 10.4562 4.68493 10.4562 4.60274C10.4562 4.52054 10.4562 4.27398 10.4562 4.10959C10.4562 3.86302 10.4562 3.69863 10.4562 3.61644C10.4562 3.36986 10.4562 3.0411 10.4562 2.71233C10.4562 2.38357 10.4562 2.13698 10.4562 1.9726C10.4562 1.80822 10.4562 1.56164 10.4562 1.39726C10.4562 1.15068 10.4562 0.986295 10.4562 0.904103C10.4562 0.821911 10.3846 0.657532 10.3846 0.57534C10.313 0.493149 10.2413 0.410954 10.1697 0.328762C10.0981 0.24657 9.95486 0.246573 9.88324 0.164381C9.52515 0.0821893 9.09546 0 8.59413 0C7.44825 0 6.66045 0.0821944 6.37398 0.246578C6.23074 0.32877 6.08751 0.410957 6.01589 0.57534C5.87265 0.739724 5.87265 0.821918 5.94427 0.821918C6.30236 0.90411 6.58883 1.06849 6.73207 1.31506L6.80369 1.47946C6.87531 1.56165 6.87529 1.72602 6.94691 1.9726C7.01853 2.21917 7.01853 2.46575 7.01853 2.79452C7.01853 3.28767 7.01853 3.78082 7.01853 4.10959C7.01853 4.52055 6.94691 4.76712 6.94691 5.01369C6.94691 5.26027 6.87531 5.42466 6.80369 5.50685C6.73207 5.67123 6.73206 5.75343 6.66044 5.75343C6.66044 5.75343 6.66044 5.83561 6.58882 5.83561C6.51721 5.83561 6.44559 5.91781 6.30236 5.91781C6.23074 5.91781 6.08751 5.83562 6.01589 5.75343C5.87265 5.67124 5.72942 5.50685 5.6578 5.34247C5.51457 5.17809 5.37133 4.9315 5.22809 4.60274C5.08486 4.27397 4.87 3.94521 4.72676 3.45205L4.58354 3.12329C4.51192 2.95891 4.36868 2.63014 4.22545 2.21918C4.08221 1.80822 3.93897 1.47946 3.79574 1.0685C3.72412 0.904113 3.65251 0.821913 3.58089 0.739721H3.50927C3.50927 0.739721 3.43765 0.657537 3.36603 0.657537C3.29441 0.657537 3.2228 0.57534 3.15118 0.57534H0.572944C0.286473 0.57534 0.14324 0.65753 0.071622 0.739721L0 0.821918C0 0.821918 0 0.904108 0 0.9863C0 1.06849 4.36734e-06 1.15068 0.071622 1.31506C0.42971 2.30136 0.859414 3.28767 1.28912 4.27397C1.71883 5.17808 2.14854 6 2.43501 6.57535C2.7931 7.15069 3.07956 7.72603 3.43765 8.21918C3.79574 8.71233 4.01059 9.0411 4.0822 9.20548C4.22544 9.36987 4.29705 9.45205 4.36867 9.53424L4.58354 9.78082C4.72677 9.94521 4.94162 10.1918 5.22809 10.4384C5.51456 10.6849 5.87265 10.9315 6.23074 11.1781C6.58882 11.4247 7.01854 11.5891 7.44824 11.7534C7.94957 11.9178 8.37927 12 8.80898 11.9178H9.88324C10.0981 11.9178 10.2413 11.8356 10.3846 11.6712L10.4562 11.589C10.4562 11.5068 10.5278 11.5069 10.5278 11.4247C10.5278 11.3425 10.5278 11.2603 10.5278 11.0959C10.5278 10.7671 10.5278 10.5206 10.5994 10.274C10.671 10.0274 10.671 9.86302 10.7427 9.69864C10.8143 9.53426 10.8859 9.45206 10.9575 9.36986C11.0291 9.28767 11.1007 9.20548 11.1007 9.20548H11.1723C11.3156 9.12329 11.5304 9.20548 11.6737 9.36986C11.8885 9.53425 12.1034 9.78082 12.2466 10.0274C12.3898 10.274 12.6047 10.5206 12.8912 10.8493C13.1777 11.1781 13.3925 11.4247 13.5357 11.5069L13.7506 11.6712C13.8938 11.7534 14.0371 11.8356 14.2519 11.9178C14.4668 12 14.61 12 14.7532 12L17.1883 11.9178C17.4031 11.9178 17.6179 11.8356 17.7612 11.7534C17.9044 11.6712 17.976 11.589 17.976 11.4247C17.976 11.3425 17.976 11.1781 17.976 11.0959C17.8328 10.9315 17.8328 10.8493 17.8328 10.7671Z" fill="#212121"/>
</svg>
