<svg width="36" height="24" viewBox="0 0 36 24" fill="none" xmlns="http://www.w3.org/2000/svg">
<path d="M34.9295 21.137C34.9295 20.9795 34.7923 20.9795 34.7923 20.8219C34.2432 19.5616 33.0078 17.9863 31.3606 16.2534C30.537 15.4658 30.1252 14.8356 29.8506 14.5205C29.4388 13.8904 29.4389 13.4178 29.5761 12.7877C29.7134 12.3151 30.2624 11.5274 31.2233 10.1096C31.7724 9.32191 32.0469 8.84932 32.4587 8.37672C34.5177 5.22603 35.4786 3.17807 35.2041 2.23286L35.0668 2.07534C34.9296 1.91781 34.7923 1.76028 34.5177 1.76028C34.2432 1.60275 33.8314 1.60275 33.4196 1.76028H28.2035C28.0662 1.76028 28.0662 1.76028 27.7916 1.76028C27.6544 1.76028 27.5171 1.76028 27.5171 1.76028H27.3798H27.2426L27.1053 1.9178C26.968 2.07533 26.968 2.07533 26.968 2.23286C26.419 3.96574 25.7326 5.38355 25.0463 6.95889C24.6345 7.74657 24.2227 8.53425 23.8109 9.16439C23.3991 9.79453 23.1245 10.2671 22.85 10.5822C22.5755 10.8973 22.3009 11.0548 22.1637 11.3699C22.0264 11.5274 21.7519 11.6849 21.7519 11.5274C21.6146 11.5274 21.4773 11.5274 21.4773 11.3699C21.3401 11.2123 21.2028 11.0548 21.0655 10.8973C20.9283 10.7397 20.9283 10.4246 20.791 10.1096C20.791 9.79451 20.791 9.47944 20.791 9.32191C20.791 9.16437 20.791 8.69179 20.791 8.37672C20.791 7.90411 20.791 7.58904 20.791 7.4315C20.791 6.9589 20.791 6.32878 20.791 5.69864C20.791 5.0685 20.791 4.59588 20.791 4.28081C20.791 3.96575 20.791 3.49315 20.791 3.17808C20.791 2.70548 20.791 2.3904 20.791 2.23286C20.791 2.07533 20.6538 1.76027 20.6538 1.60274C20.5165 1.4452 20.3792 1.28766 20.2419 1.13013C20.1047 0.972593 19.8301 0.972598 19.6929 0.815064C19.0065 0.65753 18.183 0.5 17.2221 0.5C15.0258 0.5 13.5159 0.657539 12.9668 0.972608C12.6923 1.13014 12.4177 1.28767 12.2805 1.60274C12.0059 1.9178 12.0059 2.07534 12.1432 2.07534C12.8295 2.23288 13.3786 2.54793 13.6531 3.02053L13.7904 3.33562C13.9277 3.49316 13.9276 3.80821 14.0649 4.28081C14.2022 4.75342 14.2022 5.22602 14.2022 5.85616C14.2022 6.80136 14.2022 7.74658 14.2022 8.37672C14.2022 9.16439 14.0649 9.63698 14.0649 10.1096C14.0649 10.5822 13.9277 10.8973 13.7904 11.0548C13.6531 11.3699 13.6531 11.5274 13.5159 11.5274C13.5159 11.5274 13.5158 11.6849 13.3786 11.6849C13.2413 11.6849 13.1041 11.8425 12.8295 11.8425C12.6923 11.8425 12.4177 11.6849 12.2805 11.5274C12.0059 11.3699 11.7314 11.0548 11.5941 10.7397C11.3196 10.4247 11.045 9.95205 10.7705 9.32191C10.496 8.69177 10.0842 8.06164 9.80962 7.11644L9.53511 6.48631C9.39785 6.17124 9.12331 5.54109 8.84878 4.75342C8.57424 3.96575 8.2997 3.33562 8.02517 2.54795C7.8879 2.23288 7.75065 2.07533 7.61338 1.9178H7.47611C7.47611 1.9178 7.33882 1.76028 7.20155 1.76028C7.06429 1.76028 6.92704 1.60274 6.78977 1.60274H1.84814C1.29907 1.60274 1.02454 1.76027 0.887276 1.9178L0.75 2.07534C0.75 2.07534 0.75 2.23287 0.75 2.39041C0.75 2.54794 0.750008 2.70547 0.887276 3.02053C1.57361 4.91095 2.39721 6.80137 3.22081 8.69178C4.04442 10.4247 4.86803 12 5.4171 13.1027C6.10343 14.2055 6.65249 15.3082 7.33883 16.2534C8.02517 17.1986 8.43696 17.8288 8.57423 18.1438C8.84876 18.4589 8.98602 18.6164 9.12329 18.774L9.53511 19.2466C9.80965 19.5616 10.2214 20.0343 10.7705 20.5069C11.3196 20.9795 12.0059 21.4521 12.6922 21.9247C13.3786 22.3973 14.2022 22.7123 15.0258 23.0274C15.9867 23.3425 16.8103 23.5 17.6339 23.3425H19.6929C20.1047 23.3425 20.3792 23.1849 20.6538 22.8699L20.791 22.7123C20.791 22.5548 20.9283 22.5548 20.9283 22.3973C20.9283 22.2397 20.9283 22.0822 20.9283 21.7671C20.9283 21.137 20.9283 20.6644 21.0655 20.1918C21.2028 19.7192 21.2028 19.4041 21.3401 19.0891C21.4774 18.774 21.6146 18.6164 21.7519 18.4589C21.8892 18.3014 22.0264 18.1438 22.0264 18.1438H22.1637C22.4382 17.9863 22.85 18.1438 23.1246 18.4589C23.5364 18.774 23.9481 19.2466 24.2227 19.7192C24.4972 20.1918 24.909 20.6644 25.4581 21.2945C26.0072 21.9247 26.419 22.3973 26.6935 22.5548L27.1053 22.8699C27.3798 23.0274 27.6544 23.1849 28.0662 23.3425C28.478 23.5 28.7525 23.5 29.027 23.5L33.6941 23.3425C34.106 23.3425 34.5177 23.185 34.7923 23.0274C35.0668 22.8699 35.2041 22.7123 35.2041 22.3973C35.2041 22.2397 35.2041 21.9247 35.2041 21.7671C34.9295 21.4521 34.9295 21.2945 34.9295 21.137Z" fill="#6294F9"/>
</svg>
