<svg width="86" height="86" viewBox="0 0 86 86" fill="none" xmlns="http://www.w3.org/2000/svg">
<g clip-path="url(#clip0_1114_5681)">
<path d="M71.6667 32.5365H71.6237C71.6237 33.3858 71.6237 34.235 71.5807 35.0879C70.1975 54.4665 52.4851 70.871 32.551 71.5985V71.6522C35.0615 76.0063 38.6726 79.6239 43.0223 82.1421C47.372 84.6604 52.3073 85.9908 57.3333 85.9999H75.25C78.1011 85.9999 80.8354 84.8673 82.8514 82.8513C84.8674 80.8353 86 78.101 86 75.2499V57.3332C85.9948 52.3061 84.6678 47.3688 82.152 43.0165C79.6363 38.6643 76.0202 35.0501 71.6667 32.5365Z" fill="#2C64D6"/>
<path d="M31.175 64.4999H10.75C5.40008 64.4999 0 60.4364 0 51.3634V33.3034C0.0753473 25.0695 3.15845 17.1473 8.66871 11.0285C14.179 4.9097 21.7362 1.01661 29.9172 0.0823238C34.5339 -0.25281 39.1685 0.409774 43.5063 2.02505C47.8441 3.64033 51.7834 6.17045 55.0564 9.44349C58.3295 12.7165 60.8596 16.6558 62.4749 20.9936C64.0901 25.3314 64.7527 29.966 64.4176 34.5827C63.4821 42.7671 59.5857 50.3268 53.4626 55.8374C47.3394 61.348 39.4124 64.429 31.175 64.4999ZM71.6667 32.5366H71.6237C71.6237 33.3858 71.6237 34.2351 71.5807 35.0879C70.1975 54.4666 52.4851 70.8711 32.551 71.5985V71.6522C35.0615 76.0064 38.6726 79.6239 43.0223 82.1422C47.372 84.6604 52.3073 85.9908 57.3333 85.9999H75.25C78.1011 85.9999 80.8354 84.8673 82.8514 82.8513C84.8674 80.8353 86 78.101 86 75.2499V57.3332C85.9948 52.3062 84.6678 47.3689 82.152 43.0166C79.6363 38.6643 76.0202 35.0501 71.6667 32.5366Z" fill="#6294F9"/>
</g>
<defs>
<clipPath id="clip0_1114_5681">
<rect width="86" height="86" fill="white"/>
</clipPath>
</defs>
</svg>
