<svg width="86" height="86" viewBox="0 0 86 86" fill="none" xmlns="http://www.w3.org/2000/svg">
<g clip-path="url(#clip0_1114_3108)">
<path d="M57.332 14.3333C57.332 22.2525 63.7462 28.6667 71.6654 28.6667C79.5845 28.6667 85.9987 22.2525 85.9987 14.3333C85.9987 6.41417 79.5845 0 71.6654 0C63.7462 0 57.332 6.41417 57.332 14.3333Z" fill="#2C64D6"/>
<path d="M43 55.2551C45.7592 55.2551 48.5183 54.2159 50.5967 52.1017L67.3308 35.3676C62.4837 34.3641 58.1303 31.7209 55.004 27.8831C51.8777 24.0454 50.1693 19.2475 50.1667 14.2976C50.1667 13.0792 50.31 11.8967 50.4892 10.7142H17.9167C11.4308 10.7142 5.805 14.1901 2.65167 19.3501L35.4033 52.1376C37.4174 54.1542 40.1499 55.2884 43 55.2909V55.2551ZM77.9733 34.8659L55.6492 57.1901C52.2776 60.5406 47.7174 62.4212 42.9642 62.4212C38.2109 62.4212 33.6507 60.5406 30.2792 57.1901L0.179167 27.0184C0.143333 27.5559 0 28.0934 0 28.6667V68.0834C0 77.9734 8.02667 86.0001 17.9167 86.0001H68.0833C77.9733 86.0001 86 77.9734 86 68.0834L85.9283 30.3509C83.635 32.3934 80.9475 33.9342 77.9733 34.8659Z" fill="#6294F9"/>
</g>
<defs>
<clipPath id="clip0_1114_3108">
<rect width="86" height="86" fill="white"/>
</clipPath>
</defs>
</svg>
